<?xml version="1.0" standalone="no"?>
<!DOCTYPE svg PUBLIC "-//W3C//DTD SVG 1.1//EN" "http://www.w3.org/Graphics/SVG/1.1/DTD/svg11.dtd" >
<svg>
<metadata>
Created by FontForge 20090914 at Tue Sep 25 21:08:05 2012
 By www-data
Copyright &#194;&#169; 2012 Natanel Gemert, All Rights Reserved
</metadata>
<defs>
<font id="BobbyBold" horiz-adv-x="554" >
  <font-face 
    font-family="Bobby"
    font-weight="700"
    font-stretch="normal"
    units-per-em="1000"
    panose-1="0 0 7 0 0 0 0 0 0 0"
    ascent="800"
    descent="-200"
    x-height="576"
    cap-height="763"
    bbox="-187.001 -265 973 978"
    underline-thickness="50"
    underline-position="-108"
    unicode-range="U+0020-U+20AA"
  />
<missing-glyph horiz-adv-x="500" 
d="M63 0v803h375v-803h-375zM125 63h250v678h-250v-678z" />
    <glyph glyph-name=".notdef" horiz-adv-x="500" 
d="M63 0v803h375v-803h-375zM125 63h250v678h-250v-678z" />
    <glyph glyph-name="space" unicode=" " horiz-adv-x="285" 
 />
    <glyph glyph-name="exclam" unicode="!" horiz-adv-x="295" 
d="M213 306l-13.999 -46l-8 -30c-6.66699 -25.333 -25.334 -38 -56.001 -38c-42 0 -70.667 57.667 -86 173c-9.33301 71.333 -14 132.333 -14 183c0 125.333 33.667 188 101 188c66.667 0 100 -61.333 100 -184c0 -113.333 -7.66699 -195.333 -23 -246zM147.001 -59
c-29.333 0 -54.166 10.333 -74.499 31s-30.5 45.667 -30.5 75s10.167 54.166 30.5 74.499s45.166 30.5 74.499 30.5s54.333 -10.167 75 -30.5s31 -45.166 31 -74.499s-10.333 -54.333 -31 -75s-45.667 -31 -75 -31z" />
    <glyph glyph-name="quotedbl" unicode="&#x22;" horiz-adv-x="309" 
d="M318 465h-137l-14 316h165zM128 465h-137l-14 316h165z" />
    <glyph glyph-name="numbersign" unicode="#" horiz-adv-x="720" 
d="M552 412l-10 -73h105v-143h-127l-35 -241h-146l35 241h-71l-38 -241h-145l37 241h-112v143h134l12 73h-116v143h137l34 229h144l-33 -229h70l34 229h146l-34 -229h102v-143h-123zM335 412l-11 -73h71l12 73h-72z" />
    <glyph glyph-name="dollar" unicode="$" 
d="M530 50c-35.333 -54 -89.334 -89.335 -162.001 -106.002v-159h-154v158c-96 16.667 -175.667 76 -239 178l121 92c42 -55.333 81.333 -90.666 118 -105.999v217c-59.333 30 -100.333 56.667 -123 80c-36.667 37.333 -55 84.666 -55 141.999
c0 54.667 16.167 100.334 48.5 137.001s75.5 61.334 129.5 74.001v57h154v-63c34.667 -10.667 65 -28 91 -52c18.667 -17.333 43 -47.333 73 -90l-125 -100c-15.333 23.333 -28.333 41.333 -39 54v-134c64.667 -34.667 110.334 -66.334 137.001 -95.001
c41.333 -44 62 -97.333 62 -160c0 -45.333 -12.333 -86.666 -37 -123.999zM213.999 589.998c-11.333 -8.66699 -17 -22.667 -17 -42c0 -13.333 5.66699 -26 17 -38v80zM367.999 242.998v-129c26.667 16 40 35.333 40 58c0 24 -13.333 47.667 -40 71z" />
    <glyph glyph-name="percent" unicode="%" horiz-adv-x="775" 
d="M583 -66c-60 0 -110.5 20.667 -151.5 62s-61.5 92 -61.5 152s20.5 110.667 61.5 152s91.5 62 151.5 62s110.667 -20.667 152 -62s62 -92 62 -152c0 -60.667 -20.5 -111.5 -61.5 -152.5s-91.833 -61.5 -152.5 -61.5zM175 -95l-170.999 0.000976562l465 713
c-22.667 -2.66699 -45.667 -4.33398 -69 -5.00098c3.33301 -14 5 -28.333 5 -43c0 -62 -20.5 -113.833 -61.5 -155.5s-92.167 -62.5 -153.5 -62.5c-60.667 0 -111.334 20.5 -152.001 61.5s-61 91.833 -61 152.5c0 83.333 35.667 145.333 107 186c34 19.333 69.333 29 106 29
c14 0 37 -3.33301 69 -10c38 -8 80.667 -12 128 -12c64 0 138.667 12 224 36h146zM191.001 629.001c-17.333 0 -32.001 -6 -44.001 -18s-18 -26.667 -18 -44s6 -32 18 -44s26.667 -18 44 -18c18 0 33 5.83301 45 17.5s18 26.5 18 44.5c0 17.333 -6.16699 32 -18.5 44
s-27.166 18 -44.499 18zM583 210.001c-17.333 0 -31.834 -6 -43.501 -18s-17.5 -26.667 -17.5 -44s5.83301 -32 17.5 -44s26.167 -18 43.5 -18c18 0 33 5.83301 45 17.5s18 26.5 18 44.5c0 17.333 -6.16699 32 -18.5 44s-27.166 18 -44.499 18z" />
    <glyph glyph-name="ampersand" unicode="&#x26;" horiz-adv-x="757" 
d="M611 -45l-78.001 81c-92 -66 -179.333 -99 -262 -99c-64 0 -117.667 19 -161 57c-45.333 39.333 -68 90.666 -68 153.999c0 81.333 51.667 165 155 251c-50 62 -75 116.667 -75 164c0 52.667 21.667 95.667 65 129c39.333 30 86.333 45 141 45
s101.334 -15.333 140.001 -46c42 -33.333 63 -76.666 63 -129.999c0 -56 -35.333 -117.333 -106 -184l77 -80l45 -45l87 77l110 -118c-36 -32.667 -63.667 -57 -83 -73l172 -183h-222zM324.999 579c-27.333 0 -41 -6 -41 -18c0 -10.667 12.667 -32 38 -64
c30.667 28.667 46 50.667 46 66c0 10.667 -14.333 16 -43 16zM339.999 235c-8 8 -21.001 21.999 -39.001 41.999c-64.667 -53.333 -97 -94.666 -97 -123.999c0 -17.333 8.33301 -32 25 -44c14.667 -10 31.334 -15 50.001 -15c32.667 0 79.667 19.667 141 59z" />
    <glyph glyph-name="quotesingle" unicode="'" horiz-adv-x="198" 
d="M167 465h-137l-14 316h167z" />
    <glyph glyph-name="parenleft" unicode="(" horiz-adv-x="369" 
d="M248 251c0 -170.667 34.667 -338.666 104 -503.999h-173c-62.667 150.667 -94 315.667 -94 495c0 193.333 38.333 377.666 115 552.999h181c-51.333 -105.333 -86.333 -199.833 -105 -283.5s-28 -170.5 -28 -260.5z" />
    <glyph glyph-name="parenright" unicode=")" horiz-adv-x="369" 
d="M257 24c-12 -60.667 -24.333 -110.333 -37 -149c-9.33301 -28 -26.333 -70.667 -51 -128h-181c88.667 180 133 361.333 133 544c0 170.667 -34.667 338.667 -104 504h173c62.667 -149.333 94 -314.333 94 -495c0 -93.333 -9 -185.333 -27 -276z" />
    <glyph glyph-name="asterisk" unicode="*" horiz-adv-x="425" 
d="M363 382l-79 56l9 -97h-162l10 97l-81 -56l-81 140l90 40l-90 40l83 140l78 -56l-9 95h162l-9 -95l79 56l83 -140l-90 -40l90 -40z" />
    <glyph glyph-name="plus" unicode="+" horiz-adv-x="606" 
d="M381 281v-212h-156v212h-214v157h214v211h156v-211h214v-157h-214z" />
    <glyph glyph-name="comma" unicode="," horiz-adv-x="277" 
d="M131 -141l-127 54l116 280l152 -72z" />
    <glyph glyph-name="hyphen" unicode="-" horiz-adv-x="332" 
d="M-13 195v150h358v-150h-358z" />
    <glyph glyph-name="hyphen" unicode="&#x2010;" horiz-adv-x="332" 
d="M-13 195v150h358v-150h-358z" />
    <glyph glyph-name="period" unicode="." horiz-adv-x="277" 
d="M151 -59c-29.333 0 -54.166 10.333 -74.499 31s-30.5 45.667 -30.5 75s10.167 54.166 30.5 74.499s45.166 30.5 74.499 30.5s54.166 -10.167 74.499 -30.5s30.5 -45.166 30.5 -74.499s-10.167 -54.333 -30.5 -75s-45.166 -31 -74.499 -31z" />
    <glyph glyph-name="slash" unicode="/" horiz-adv-x="437" 
d="M141 -143h-170l330 924h172z" />
    <glyph glyph-name="zero" unicode="0" 
d="M532 128c-16.667 -40 -32.332 -69.667 -46.999 -89c-10 -12.667 -27.333 -28.667 -52 -48c-46 -36 -99.333 -54 -160 -54c-118.667 0 -202.667 62 -252 186c-22.667 57.333 -34 136 -34 236c0 184 45 308.333 135 373c45.333 32.667 95.666 49 150.999 49
c120 0 206 -63 258 -189c24 -58 36 -135.667 36 -233c0 -95.333 -11.667 -172.333 -35 -231zM275.002 623c-52 0 -89 -32 -111 -96c-12.667 -37.333 -19 -94 -19 -170c0 -176.667 43.333 -265 130 -265c90 0 135 88.333 135 265c0 65.333 -7.66699 120.333 -23 165
c-22.667 67.333 -60 101 -112 101z" />
    <glyph glyph-name="one" unicode="1" 
d="M210 -45v506l-88 -85l-2 223l251 218v-862h-161z" />
    <glyph glyph-name="two" unicode="2" 
d="M-74 -45l385.001 415.001c54.667 58.667 82 108.667 82 150c0 30 -10.833 54.667 -32.5 74s-47.834 29 -78.501 29c-44.667 0 -77.334 -19 -98.001 -57c-14 -26.667 -22.667 -66 -26 -118h-158c2.66699 97.333 26.334 175.333 71.001 234c50 66 121.667 99 215 99
c76 0 139.5 -24.5 190.5 -73.5s76.5 -111.167 76.5 -186.5c0 -56 -18.667 -112.667 -56 -170c-18.667 -28.667 -57.667 -75.334 -117 -140.001l-91 -97h274v-159h-637z" />
    <glyph glyph-name="three" unicode="3" 
d="M522 75c-53.333 -92 -137.001 -137.999 -251.001 -137.999c-88.667 0 -157 28.667 -205 86c-39.333 48 -67.666 119.333 -84.999 214h159c14 -51.333 28.667 -86.333 44 -105c19.333 -23.333 48.666 -35 87.999 -35c35.333 0 65.5 10 90.5 30s37.5 47 37.5 81
c0 43.333 -20.667 74.666 -62 93.999c-20 9.33301 -69.667 16.333 -149 21v153c48.667 0 84.667 3.33301 108 10c39.333 11.333 59 33 59 65c0 21.333 -9 39 -27 53c-16.667 12 -36.334 18 -59.001 18c-28 0 -50 -10.333 -66 -31
c-11.333 -14.667 -24.666 -42.667 -39.999 -84h-162c20 85.333 47.667 149.666 83 192.999c44.667 54 106.334 81 185.001 81c68 0 126.333 -21 175 -63c50.667 -44 76 -99.667 76 -167c0 -55.333 -19 -102.666 -57 -141.999c64.667 -49.333 97 -114.333 97 -195
c0 -48 -13 -94.333 -39 -139z" />
    <glyph glyph-name="four" unicode="4" 
d="M485 122v-167h-161v167h-385l463 659h83v-500h87v-159h-87zM324 394l-80 -113h80v113z" />
    <glyph glyph-name="five" unicode="5" 
d="M517 83c-54 -97.333 -139.667 -146 -257 -146c-154.667 0 -245 94 -271 282h163c16 -83.333 53.333 -125 112 -125c38 0 69.333 14.667 94 44c22.667 27.333 34 60.333 34 99c0 37.333 -11.167 66.333 -33.5 87s-52.5 31 -90.5 31c-36 0 -107.333 -22.333 -214 -67
l89 475h394v-158h-264l-17 -94c10 1.33301 19.667 2 29 2c80 0 145 -26.5 195 -79.5s75 -119.5 75 -199.5c0 -54.667 -12.667 -105 -38 -151z" />
    <glyph glyph-name="six" unicode="6" 
d="M324 461c67.333 -4.66699 122.667 -31.666 166 -80.999s65 -108.333 65 -177c0 -49.333 -11.667 -94.333 -35 -135c-15.333 -26.667 -31 -47.334 -47 -62.001c-9.33301 -8.66699 -27 -20 -53 -34c-43.333 -23.333 -88.333 -35 -135 -35
c-74.667 0 -137.167 25.5 -187.5 76.5s-75.5 113.833 -75.5 188.5c0 67.333 29.667 145.333 89 234l242 362l136 -87zM288.001 309.001c-30 0 -55.167 -10.167 -75.5 -30.5s-30.5 -45.5 -30.5 -75.5s10.167 -55.167 30.5 -75.5s45.5 -30.5 75.5 -30.5
s55.167 10.167 75.5 30.5s30.5 45.5 30.5 75.5s-10.167 55.167 -30.5 75.5s-45.5 30.5 -75.5 30.5z" />
    <glyph glyph-name="seven" unicode="7" 
d="M162 -78l-138 71l318 612h-315v158h575z" />
    <glyph glyph-name="eight" unicode="8" 
d="M500 30c-53.333 -62 -128 -93.002 -224 -93.002c-80 0 -147 23.667 -201 71c-57.333 49.333 -86 113.333 -86 192c0 80 34 145.667 102 197c-45.333 40.667 -68 91.334 -68 152.001c0 67.333 26.667 123.333 80 168c50 42.667 109.333 64 178 64
c68 0 126.333 -21.667 175 -65c50.667 -45.333 76 -101.666 76 -168.999c0 -59.333 -22 -109.333 -66 -150c66 -49.333 99 -113 99 -191c0 -67.333 -21.667 -126 -65 -176zM277 621.998c-24 0 -44.666 -5.99902 -61.999 -17.999c-19.333 -14 -29 -32.667 -29 -56
c0 -22 10 -40.833 30 -56.5s41.333 -23.5 64 -23.5c23.333 0 44.166 7.83301 62.499 23.5s27.5 35.167 27.5 58.5s-10 41.666 -30 54.999c-17.333 11.333 -38.333 17 -63 17zM368.001 278.999c-15.333 14.667 -28.166 24 -38.499 28s-26.5 6 -48.5 6
c-34.667 0 -65 -10.667 -91 -32s-39 -49 -39 -83c0 -34.667 12.667 -61 38 -79c22.667 -16 52 -24 88 -24c35.333 0 65.166 9.66699 89.499 29s36.5 46.333 36.5 81c0 27.333 -11.667 52 -35 74z" />
    <glyph glyph-name="nine" unicode="9" 
d="M235 257c-68 4 -123.667 31.333 -167 82c-42.667 48.667 -64 107.334 -64 176.001c0 76.667 25.667 140.167 77 190.5s115.333 75.5 192 75.5c74.667 0 137.167 -25.333 187.5 -76s75.5 -113.334 75.5 -188.001c0 -69.333 -29.667 -148 -89 -236l-243 -361l-134 87z
M270 621c-30 0 -55.167 -10.167 -75.5 -30.5s-30.5 -45.5 -30.5 -75.5s10.167 -55.167 30.5 -75.5s45.5 -30.5 75.5 -30.5s55.167 10.167 75.5 30.5s30.5 45.5 30.5 75.5s-10.167 55.167 -30.5 75.5s-45.5 30.5 -75.5 30.5z" />
    <glyph glyph-name="colon" unicode=":" horiz-adv-x="277" 
d="M151 379c-29.333 0 -54.167 10.167 -74.5 30.5s-30.5 45.166 -30.5 74.499s10.167 54.333 30.5 75s45.166 31 74.499 31c30 0 55 -10.167 75 -30.5s30 -45.5 30 -75.5c0 -29.333 -10.167 -54.166 -30.5 -74.499s-45.166 -30.5 -74.499 -30.5zM150.999 -59
c-29.333 0 -54.166 10.333 -74.499 31s-30.5 45.667 -30.5 75s10.167 54.166 30.5 74.499s45.166 30.5 74.499 30.5s54.166 -10.167 74.499 -30.5s30.5 -45.166 30.5 -74.499s-10.167 -54.333 -30.5 -75s-45.166 -31 -74.499 -31z" />
    <glyph glyph-name="semicolon" unicode=";" horiz-adv-x="277" 
d="M151 379c-29.333 0 -54.167 10.167 -74.5 30.5s-30.5 45.166 -30.5 74.499s10.167 54.333 30.5 75s45.166 31 74.499 31c30 0 55 -10.167 75 -30.5s30 -45.5 30 -75.5c0 -29.333 -10.167 -54.166 -30.5 -74.499s-45.166 -30.5 -74.499 -30.5zM130.999 -141l-127 54
l116 280l152 -72z" />
    <glyph glyph-name="less" unicode="&#x3c;" horiz-adv-x="606" 
d="M6 298v121l594 272v-171l-348 -162l348 -160v-170z" />
    <glyph glyph-name="equal" unicode="=" horiz-adv-x="606" 
d="M11 388v157h584v-157h-584zM11 173v157h584v-157h-584z" />
    <glyph glyph-name="greater" unicode="&#x3e;" horiz-adv-x="606" 
d="M6 28v170l348 160l-348 162v171l594 -272v-121z" />
    <glyph glyph-name="question" unicode="?" horiz-adv-x="560" 
d="M483 428c-10 -14.667 -28.168 -33.499 -54.501 -56.499s-44.5 -41.5 -54.5 -55.5c-12.667 -18 -21.334 -58.667 -26.001 -122h-162c0.666992 116.667 36.334 206 107.001 268c45.333 39.333 68 69.666 68 90.999c0 20 -9 35.333 -27 46
c-14.667 9.33301 -32.667 14 -54 14c-28.667 0 -50.667 -9 -66 -27c-12 -14 -21.333 -36.667 -28 -68h-157c10.667 81.333 35.334 142 74.001 182c42 43.333 103 65 183 65c95.333 0 164.333 -35.333 207 -106c20.667 -34 31 -70 31 -108
c0 -41.333 -13.667 -82.333 -41 -123zM266.999 -58.999c-29.333 0 -54.166 10.333 -74.499 31s-30.5 45.667 -30.5 75s10.167 54.166 30.5 74.499s45.166 30.5 74.499 30.5s54.333 -10.167 75 -30.5s31 -45.166 31 -74.499s-10.333 -54.333 -31 -75s-45.667 -31 -75 -31z
" />
    <glyph glyph-name="at" unicode="@" horiz-adv-x="867" 
d="M664 137c-43.333 -22 -81.6699 -32.999 -115.003 -32.999s-59 9 -77 27c-26.667 -14.667 -55.667 -22 -87 -22c-62.667 0 -113 21.667 -151 65c-37.333 41.333 -56 93.666 -56 156.999c0 76 23 140 69 192c48.667 54.667 110.334 82 185.001 82
c37.333 0 70 -8.33301 98 -25l4 20h144c-16 -78.667 -37.333 -196.667 -64 -354c68.667 36.667 103 97.334 103 182.001c0 72 -27.667 130 -83 174c-51.333 41.333 -113.666 62 -186.999 62c-85.333 0 -156.166 -27.5 -212.499 -82.5s-84.5 -125.167 -84.5 -210.5
c0 -86 29 -156.833 87 -212.5s130 -83.5 216 -83.5c48.667 0 90.667 9.66699 126 29c28 15.333 64 44.666 108 87.999h163c-72 -90 -127.333 -149.667 -166 -179c-63.333 -47.333 -139.333 -71 -228 -71c-122 0 -224.833 40.167 -308.5 120.5s-125.5 181.5 -125.5 303.5
s40.667 224.333 122 307s183 124 305 124c106 0 197.667 -33 275 -99c80.667 -68.667 121 -155.334 121 -260.001c0 -139.333 -60.333 -239.666 -181 -300.999zM436.996 463.001c-30.667 0 -55.334 -13.333 -74.001 -40c-16.667 -23.333 -25 -51 -25 -83
c0 -57.333 23.667 -86 71 -86c28.667 0 50.334 17.667 65.001 53c11.333 26.667 17 56.667 17 90c0 44 -18 66 -54 66z" />
    <glyph glyph-name="A" unicode="A" horiz-adv-x="740" 
d="M610 -45l-113 236h-252l-113 -236h-179l382 808h74l377 -808h-176zM372 461l-52 -110h104z" />
    <glyph glyph-name="B" unicode="B" horiz-adv-x="574" 
d="M287 -45h-242.999v808h187c117.333 0 197.666 -34.333 240.999 -103c22.667 -36 34 -75.333 34 -118c0 -55.333 -17 -102 -51 -140c73.333 -44 110 -109.333 110 -196c0 -76 -27.667 -137.333 -83 -184c-52.667 -44.667 -117.667 -67 -195 -67zM205.001 463
c91.333 0 137 26.333 137 79c0 34 -18 53.667 -54 59c-8.66699 1.33301 -23.667 2 -45 2h-38v-140zM205.001 301v-185.999h44c36 0 62 2 78 6c20.667 5.33301 38 15.5 52 30.5s21 32.833 21 53.5c0 49.333 -33.667 79.666 -101 90.999c-20 3.33301 -51.333 5 -94 5z" />
    <glyph glyph-name="C" unicode="C" horiz-adv-x="813" 
d="M641 -21c-42 -20 -77.332 -32.332 -105.999 -36.999c-19.333 -3.33301 -50 -5 -92 -5c-140 0 -250.667 47 -332 141c-68 78 -102 173 -102 285c0 122.667 41.333 223 124 301s185.667 117 309 117c152 0 277.333 -68.333 376 -205l-127 -98
c-72.667 95.333 -155.334 143 -248.001 143c-76.667 0 -140.5 -24.833 -191.5 -74.5s-76.5 -112.834 -76.5 -189.501c0 -78 25.833 -141.167 77.5 -189.5s116.5 -72.5 194.5 -72.5c86.667 0 169 44.667 247 134l127 -96c-60 -74 -120 -125.333 -180 -154z" />
    <glyph glyph-name="D" unicode="D" horiz-adv-x="744" 
d="M527 -9c-54 -24 -124.333 -36 -211 -36h-274v808h194c104 0 184 -8.66699 240 -26c84 -26 149.333 -75.333 196 -148c43.333 -68 65 -147.667 65 -239c0 -78 -17.333 -148.667 -52 -212c-37.333 -68 -90 -117 -158 -147zM416 585c-39.333 12 -109 17.999 -209 17.999h-6
v-490h38c94 0 158.333 5.66699 193 17c95.333 30.667 143 103.667 143 219c0 56.667 -13 105.334 -39 146.001c-28 44 -68 74 -120 90z" />
    <glyph glyph-name="E" unicode="E" horiz-adv-x="536" 
d="M205 602v-134h337v-160h-337v-192h337v-161h-499v808h502v-161h-340z" />
    <glyph glyph-name="F" unicode="F" horiz-adv-x="485" 
d="M204 307v-352h-162v808h450v-161h-288v-134h288v-161h-288z" />
    <glyph glyph-name="G" unicode="G" horiz-adv-x="872" 
d="M756 48c-50 -49.333 -95.6689 -81 -137.002 -95c-32 -10.667 -84.333 -16 -157 -16c-147.333 0 -264 50.333 -350 151c-66.667 78 -100 168.333 -100 271c0 76.667 19 147.667 57 213s90.333 116.5 157 153.5s141.667 55.5 225 55.5c79.333 0 151.333 -16.333 216 -49
c53.333 -27.333 113 -72 179 -134l-122 -116c-93.333 92 -183.333 138 -270 138c-75.333 0 -140 -24 -194 -72c-55.333 -50 -83 -112.333 -83 -187c0 -76.667 29 -140.667 87 -192c56 -49.333 122.667 -74 200 -74c48.667 0 92.334 11.333 131.001 34
c42.667 24 72.334 57.667 89.001 101h-216v159h400c-0.666992 -154 -38 -267.667 -112 -341z" />
    <glyph glyph-name="H" unicode="H" horiz-adv-x="683" 
d="M479 -45v347h-275v-347h-163v808h163v-301h275v301h162v-808h-162z" />
    <glyph glyph-name="I" unicode="I" horiz-adv-x="226" 
d="M32 -45v808h162v-808h-162z" />
    <glyph glyph-name="J" unicode="J" horiz-adv-x="482" 
d="M419 61c-33.333 -82.667 -99.332 -124 -197.999 -124c-68.667 0 -148.334 37.333 -239.001 112l86 129c80 -56 131 -84 153 -84c24 0 40 12 48 36c5.33301 16.667 8 52 8 106v527h163v-530c0 -80 -7 -137.333 -21 -172z" />
    <glyph glyph-name="K" unicode="K" horiz-adv-x="591" 
d="M457 -45l-251 266v-266h-164v808h164v-210l223 210h229l-396 -369l413 -439h-218z" />
    <glyph glyph-name="L" unicode="L" horiz-adv-x="462" 
d="M42 -45v808h163v-649h276v-159h-439z" />
    <glyph glyph-name="M" unicode="M" horiz-adv-x="919" 
d="M754 -45l-56 407l-200 -407h-75l-204 411l-56 -411h-161l116 808h79l263 -532l261 532h79l117 -808h-163z" />
    <glyph glyph-name="N" unicode="N" horiz-adv-x="740" 
d="M615 -45l-408 468v-468h-164v808h81l412 -474v474h161v-808h-82z" />
    <glyph glyph-name="O" unicode="O" horiz-adv-x="869" 
d="M436 -63c-119.333 0 -220 40 -302 120s-123 179.667 -123 299s40.167 220 120.5 302s179.833 123 298.5 123c121.333 0 223 -40 305 -120s123 -180.667 123 -302c0 -119.333 -40.5 -219.5 -121.5 -300.5s-181.167 -121.5 -300.5 -121.5zM659 492
c-14.667 25.333 -27.833 43.833 -39.5 55.5s-30.167 24.5 -55.5 38.5c-41.333 23.333 -85 35 -131 35c-73.333 0 -134.5 -25.833 -183.5 -77.5s-73.5 -114.167 -73.5 -187.5s24.5 -134.833 73.5 -184.5s110.167 -74.5 183.5 -74.5c75.333 0 137.5 24.833 186.5 74.5
s73.5 112.167 73.5 187.5c0 50 -11.333 94.333 -34 133z" />
    <glyph glyph-name="P" unicode="P" horiz-adv-x="592" 
d="M534 382c-21.333 -27.333 -42 -46.668 -62 -58.001c-13.333 -6.66699 -36.333 -14 -69 -22c-36 -8.66699 -100.333 -13 -193 -13h-6v-334h-162v808h188c84.667 0 143.667 -4 177 -12c54 -12.667 96.5 -39.167 127.5 -79.5s46.5 -88.5 46.5 -144.5
c0 -57.333 -15.667 -105.666 -47 -144.999zM358 598.998c-11.333 2.66699 -35.333 4.00098 -72 4.00098h-82v-154h31c24 0 40.333 -0.666992 49 -2c42.667 0.666992 72 4 88 10c29.333 11.333 44 34.666 44 69.999c0 38.667 -19.333 62.667 -58 72z" />
    <glyph glyph-name="Q" unicode="Q" horiz-adv-x="871" 
d="M686 -102l-63 81.001c-56.667 -28 -118.667 -42 -186 -42c-119.333 0 -220 40 -302 120s-123 179.667 -123 299c0 120 40.5 220.833 121.5 302.5s181.5 122.5 301.5 122.5s220.5 -40.333 301.5 -121s121.5 -181 121.5 -301c0 -108.667 -36 -203.334 -108 -284.001
l139 -177h-203zM660 492.001c-14.667 26 -27.5 44.1689 -38.5 54.502s-29.833 23.166 -56.5 38.499c-42 24 -85.333 36 -130 36c-74 0 -135.5 -25.667 -184.5 -77s-73.5 -114 -73.5 -188c0 -73.333 24.5 -134.833 73.5 -184.5s110.167 -74.5 183.5 -74.5
c30 0 58.333 4.33301 85 13l-182 231h201l109 -136c31.333 44 47 95.333 47 154c0 49.333 -11.333 93.666 -34 132.999z" />
    <glyph glyph-name="R" unicode="R" horiz-adv-x="607" 
d="M440 -45l-232 301.003v-301h-162v808h188c82.667 0 140.334 -3.66699 173.001 -11c54.667 -12 98.167 -38.333 130.5 -79s48.5 -89.334 48.5 -146.001c0 -64.667 -18.333 -116.834 -55 -156.501s-87.334 -64.834 -152.001 -75.501l263 -340h-202zM362 598.003
c-14 3.33301 -38 4.99902 -72 4.99902h-82v-154h31c24.667 0 41.334 -0.666992 50.001 -2c41.333 0.666992 70.666 4.33398 87.999 11.001c29.333 11.333 44 34.333 44 69c0 38 -19.667 61.667 -59 71z" />
    <glyph glyph-name="S" unicode="S" horiz-adv-x="498" 
d="M230 -63c-64.667 0 -120.332 20.668 -166.999 62.001c-34.667 30.667 -71.334 81 -110.001 151l138 83c50 -90.667 94 -136 132 -136c24 0 44.667 7 62 21s26 32.667 26 56c0 34 -40 81.333 -120 142c-60.667 46 -101 81 -121 105c-37.333 44 -56 93 -56 147
c0 61.333 21 112.166 63 152.499s94 60.5 156 60.5c54.667 0 102.667 -16.667 144 -50c27.333 -22 63 -62.333 107 -121l-130 -99c-29.333 39.333 -46.666 61.666 -51.999 66.999c-24 26 -47.667 39 -71 39c-35.333 0 -53 -15.333 -53 -46c0 -20 10.667 -40.667 32 -62
c17.333 -17.333 53 -45.666 107 -84.999c46 -34 80 -65 102 -93c40 -50.667 60 -102.667 60 -156c0 -68 -24.333 -124.667 -73 -170s-107.334 -68 -176.001 -68z" />
    <glyph glyph-name="T" unicode="T" horiz-adv-x="426" 
d="M295 603v-648h-163v648h-161v160h484v-160h-160z" />
    <glyph glyph-name="U" unicode="U" horiz-adv-x="655" 
d="M593 126c-16 -54 -47.332 -99.001 -93.999 -135.001c-28.667 -22 -53.834 -36.5 -75.501 -43.5s-51.167 -10.5 -88.5 -10.5c-64 0 -120.333 15.333 -169 46c-52.667 32.667 -88 78.334 -106 137.001c-10 32 -15 87 -15 165v478h162v-478c0 -60 1.66699 -96.667 5 -110
c6 -24 21.333 -43.667 46 -59c22.667 -14 47 -21 73 -21c58 0 95.333 29.667 112 89c4 14 6 47.667 6 101v478h161v-478c0 -68 -5.66699 -121 -17 -159z" />
    <glyph glyph-name="V" unicode="V" horiz-adv-x="702" 
d="M386 -45h-75l-347 808h177l208 -486l212 486h177z" />
    <glyph glyph-name="W" unicode="W" horiz-adv-x="960" 
d="M741 -45h-78l-183 466l-187 -466h-78l-228 808h168l119 -423l168 423h76l167 -423l121 423h167z" />
    <glyph glyph-name="X" unicode="X" horiz-adv-x="609" 
d="M466 -45l-161 261l-162 -261h-190l257 415l-241 393h190l146 -239l148 239h189l-242 -393l257 -415h-191z" />
    <glyph glyph-name="Y" unicode="Y" horiz-adv-x="592" 
d="M378 331v-376h-160v375l-268 433h189l158 -255l156 255h188z" />
    <glyph glyph-name="Z" unicode="Z" horiz-adv-x="480" 
d="M209 115h259v-160h-511l302 649h-244v159h494z" />
    <glyph glyph-name="bracketleft" unicode="[" horiz-adv-x="351" 
d="M97 -239v1020h254v-159h-96v-704h96v-157h-254z" />
    <glyph glyph-name="backslash" unicode="\" horiz-adv-x="605" 
d="M471 -143l-515 924h178l515 -924h-178z" />
    <glyph glyph-name="bracketright" unicode="]" horiz-adv-x="351" 
d="M0 -239v159h96v704h-96v157h254v-1020h-254z" />
    <glyph glyph-name="asciicircum" unicode="^" horiz-adv-x="672" 
d="M520 133l-185 402l-185 -402h-162l291 630h114l291 -630h-164z" />
    <glyph glyph-name="underscore" unicode="_" horiz-adv-x="500" 
d="M-51 -170v140h602v-140h-602z" />
    <glyph glyph-name="grave" unicode="`" horiz-adv-x="378" 
d="M179 585l-230 240h233l171 -240h-174z" />
    <glyph glyph-name="a" unicode="a" horiz-adv-x="683" 
d="M493 -45l0.000976562 35c-50 -32.667 -106 -49 -168 -49c-90.667 0 -166.334 31.667 -227.001 95s-91 140.333 -91 231c0 90 30.833 166.333 92.5 229s137.5 94 227.5 94c62.667 0 118 -16.333 166 -49v35h157v-621h-157zM332.001 434c-46.667 0 -86 -16.333 -118 -49
s-48 -72.667 -48 -120s16 -87.666 48 -120.999s71.333 -50 118 -50c48.667 0 88.334 16 119.001 48s46 72.333 46 121c0 49.333 -15.333 90.166 -46 122.499s-70.334 48.5 -119.001 48.5z" />
    <glyph glyph-name="b" unicode="b" horiz-adv-x="682" 
d="M359 -59c-62 0 -117.334 16.668 -166.001 50.001v-36h-157v826h157v-240c50 32.667 106 49 168 49c90.667 0 166.334 -31.5 227.001 -94.5s91 -139.833 91 -230.5s-30.667 -167.334 -92 -230.001s-137.333 -94 -228 -94zM496.999 352.001
c-32 57.333 -79.334 86.001 -142.001 86.001c-48 0 -87.667 -16 -119 -48s-47 -72.333 -47 -121c0 -49.333 15.333 -90.333 46 -123s70.334 -49 119.001 -49c47.333 0 86.833 16.5 118.5 49.5s47.5 73.167 47.5 120.5c0 29.333 -7.66699 57.666 -23 84.999z" />
    <glyph glyph-name="c" unicode="c" horiz-adv-x="647" 
d="M510 -22c-30.667 -15.333 -57.6689 -25.333 -81.002 -30c-20.667 -4.66699 -49.334 -7 -86.001 -7c-94 0 -173.667 30 -239 90s-98 136.667 -98 230c0 96 33.333 175.333 100 238c65.333 60.667 146.333 91 243 91c82.667 0 153.334 -22.333 212.001 -67
c26.667 -20.667 57.334 -59.667 92.001 -117l-126 -79c-54.667 72 -115 108 -181 108c-51.333 0 -94.333 -15.5 -129 -46.5s-52 -71.833 -52 -122.5s17.333 -92 52 -124s77.667 -48 129 -48c64 0 124.333 36 181 108l128 -82c-47.333 -70 -95.666 -117.333 -144.999 -142z
" />
    <glyph glyph-name="d" unicode="d" horiz-adv-x="685" 
d="M494 -45l0.000976562 35c-50 -32.667 -106 -49 -168 -49c-90.667 0 -166.334 31.667 -227.001 95s-91 140.333 -91 231c0 90 30.833 166.333 92.5 229s137.5 94 227.5 94c62.667 0 118 -16.333 166 -49v240h157v-826h-157zM333.001 434c-46.667 0 -86 -16.333 -118 -49
s-48 -72.667 -48 -120s16 -87.666 48 -120.999s71.333 -50 118 -50c48.667 0 88.334 16 119.001 48s46 72.333 46 121c0 49.333 -15.333 90.166 -46 122.499s-70.334 48.5 -119.001 48.5z" />
    <glyph glyph-name="e" unicode="e" horiz-adv-x="650" 
d="M172 215c8.66699 -36.667 26.333 -66 53 -88s58.667 -33 96 -33c43.333 0 79.333 12.333 108 37c21.333 18.667 47.333 53.667 78 105l134 -71c-37.333 -72.667 -78.333 -126.667 -123 -162c-52.667 -41.333 -116.334 -62 -191.001 -62
c-93.333 0 -170.166 30.5 -230.499 91.5s-90.5 138.167 -90.5 231.5c0 78 23.667 147.333 71 208c61.333 78.667 143.333 118 246 118c105.333 0 189.666 -40 252.999 -120c44.667 -56.667 67.334 -141.667 68.001 -255h-472zM323.999 434
c-58.667 0 -101.667 -23.333 -129 -70h263c-27.333 46.667 -72 70 -134 70z" />
    <glyph glyph-name="f" unicode="f" horiz-adv-x="314" 
d="M230 641c-3.33301 0 -5.33398 1.33301 -6.00098 4c-1.33301 -3.33301 -2 -17.333 -2 -42v-27h111v-148h-111v-473h-159v473h-69v148h69v38c0 38.667 3.33301 68 10 88c10 30 28 53 54 69s55.333 24 88 24c26.667 0 68.334 -8 125.001 -24v-169c-61.333 26 -98 39 -110 39
z" />
    <glyph glyph-name="g" unicode="g" horiz-adv-x="673" 
d="M627 -64c-20.667 -62.667 -59.334 -110.333 -116.001 -143c-51.333 -30.667 -111.666 -46 -180.999 -46c-104.667 0 -185.667 27.667 -243 83c-26 24.667 -60 82.334 -102 173.001h171c22.667 -38 46.167 -64.833 70.5 -80.5s57.833 -23.5 100.5 -23.5
c91.333 0 143.333 32.667 156 98c-48 -28 -102 -42 -162 -42c-89.333 0 -164.5 30.167 -225.5 90.5s-91.5 135.166 -91.5 224.499c0 88.667 31 164.167 93 226.5s137.333 93.5 226 93.5c60.667 0 116 -16.667 166 -50v36h159v-468c0 -72.667 -7 -130 -21 -172zM413 413.001
c-25.333 14 -52.334 21 -81.001 21c-48 0 -88.167 -16 -120.5 -48s-48.5 -72 -48.5 -120s15.333 -86.167 46 -114.5s70.334 -42.5 119.001 -42.5c50.667 0 90.667 14.167 120 42.5s44 67.833 44 118.5c0 32 -6.83301 60.333 -20.5 85s-33.167 44 -58.5 58z" />
    <glyph glyph-name="h" unicode="h" horiz-adv-x="610" 
d="M426 -45v298.001c0 66.667 -4 111 -12 133c-12.667 34 -40.667 51 -84 51c-30.667 0 -58.334 -10.333 -83.001 -31s-41 -46.334 -49 -77.001c-5.33301 -21.333 -8 -66 -8 -134v-240h-159v826h159v-239c46 32 97.333 48 154 48c47.333 0 90.333 -12.167 129 -36.5
s67.334 -58.166 86.001 -101.499c17.333 -40.667 26 -100.334 26 -179.001v-318h-159z" />
    <glyph glyph-name="i" unicode="i" horiz-adv-x="200" 
d="M100 592c-28 0 -51.834 9.83398 -71.501 29.501s-29.5 43.5 -29.5 71.5s9.83301 52 29.5 72s43.5 30 71.5 30c28.667 0 52.834 -9.83301 72.501 -29.5s29.5 -43.834 29.5 -72.501c0 -28 -10 -51.833 -30 -71.5s-44 -29.5 -72 -29.5zM20.999 -44.999v621h159v-621h-159z
" />
    <glyph glyph-name="j" unicode="j" horiz-adv-x="203" 
d="M102 592c-28 0 -52.001 9.83203 -72.001 29.499s-30 43.5 -30 71.5c0 28.667 9.83301 52.834 29.5 72.501s43.834 29.5 72.501 29.5c28 0 51.833 -10 71.5 -30s29.5 -44 29.5 -72s-9.83301 -51.833 -29.5 -71.5s-43.5 -29.5 -71.5 -29.5zM147.999 -206.001
c-14.667 -18.667 -28.999 -31.167 -42.999 -37.5s-33.333 -9.5 -58 -9.5c-29.333 0 -70.333 10 -123 30v167c55.333 -28.667 86.666 -43 93.999 -43c3.33301 0 5 13 5 39v636h159v-656c0 -54.667 -11.333 -96.667 -34 -126z" />
    <glyph glyph-name="k" unicode="k" horiz-adv-x="502" 
d="M394 -45l-204 183v-183h-159v826h159v-365l184 160h237l-344 -298l358 -323h-231z" />
    <glyph glyph-name="l" unicode="l" horiz-adv-x="200" 
d="M21 -45v826h158v-826h-158z" />
    <glyph glyph-name="m" unicode="m" horiz-adv-x="938" 
d="M755 -45l-0.00292969 334.998c0 48.667 -2.33301 80.334 -7 95.001c-10.667 32.667 -34.667 49 -72 49c-24 0 -46 -7.33301 -66 -22s-34.667 -33.667 -44 -57c-10.667 -27.333 -16 -76.333 -16 -147v-253h-157v317c0 58.667 -3.33301 97.334 -10 116.001
c-11.333 30.667 -34.666 46 -69.999 46c-50.667 0 -86.667 -26.333 -108 -79c-10.667 -26 -16 -69.333 -16 -130v-270h-158v621h158v-27c40.667 27.333 86.334 41 137.001 41c76.667 0 135 -28.333 175 -85c50.667 56.667 113.334 85 188.001 85
c98 0 165.333 -44.667 202 -134c16 -38.667 24 -94 24 -166v-335h-160z" />
    <glyph glyph-name="n" unicode="n" horiz-adv-x="610" 
d="M427 -45v298.001c0 65.333 -4.33301 109.333 -13 132c-13.333 34.667 -41.333 52 -84 52c-30.667 0 -58.334 -10.333 -83.001 -31s-41 -46.334 -49 -77.001c-5.33301 -21.333 -8 -66 -8 -134v-240h-159v621h159v-34c46 32 97.333 48 154 48
c47.333 0 90.333 -12.167 129 -36.5s67.334 -58.166 86.001 -101.499c17.333 -40.667 26 -100.334 26 -179.001v-318h-158z" />
    <glyph glyph-name="o" unicode="o" horiz-adv-x="655" 
d="M328 -59c-92 0 -168.668 30.833 -230.001 92.5s-92 138.5 -92 230.5s30.667 169.333 92 232s138 94 230 94s168.5 -31.333 229.5 -94s91.5 -140 91.5 -232c0 -91.333 -30.667 -168 -92 -230s-137.666 -93 -228.999 -93zM327.999 433
c-46.667 0 -85.3311 -16.667 -115.998 -50s-46 -73.333 -46 -120c0 -48 15.167 -87.833 45.5 -119.5s69.166 -47.5 116.499 -47.5s86.166 16 116.499 48s45.5 71.667 45.5 119c0 46.667 -15.5 86.667 -46.5 120s-69.5 50 -115.5 50z" />
    <glyph glyph-name="p" unicode="p" horiz-adv-x="682" 
d="M358 -59c-62 0 -118 16.333 -168 49v-229h-158v815h158v-35c48 32.667 103.333 49 166 49c90 0 165.667 -31.333 227 -94s92 -139 92 -229c0 -91.333 -30.167 -168.5 -90.5 -231.5s-135.833 -94.5 -226.5 -94.5zM494 350c-31.333 56 -79.001 83.999 -143.001 83.999
c-48.667 0 -88.5 -16.167 -119.5 -48.5s-46.5 -73.166 -46.5 -122.499c0 -48.667 15.667 -89 47 -121s71.333 -48 120 -48c46.667 0 85.834 16.833 117.501 50.5s47.5 73.834 47.5 120.501c0 29.333 -7.66699 57.666 -23 84.999z" />
    <glyph glyph-name="q" unicode="q" horiz-adv-x="682" 
d="M493 -239l-0.000976562 229c-50 -32.667 -106.333 -49 -169 -49c-90.667 0 -166.167 31.667 -226.5 95s-90.5 140.333 -90.5 231c0 90 30.667 166.333 92 229s137 94 227 94c62.667 0 118.334 -16.333 167.001 -49v35h157v-815h-157zM331.999 434
c-47.333 0 -86.833 -16.333 -118.5 -49s-47.5 -72.667 -47.5 -120c0 -46.667 15.833 -86.834 47.5 -120.501s70.834 -50.5 117.501 -50.5c48.667 0 88.5 16 119.5 48s46.5 72.333 46.5 121s-15.333 89.334 -46 122.001s-70.334 49 -119.001 49z" />
    <glyph glyph-name="r" unicode="r" horiz-adv-x="301" 
d="M300 412c-28 12.667 -45.666 20 -52.999 22c-38 0 -63 -34.667 -75 -104c-4.66699 -27.333 -7 -77.333 -7 -150v-225h-160v621h160v-14c29.333 18.667 60.333 28 93 28c27.333 0 68.666 -15.667 123.999 -47z" />
    <glyph glyph-name="s" unicode="s" horiz-adv-x="388" 
d="M301 363c-49.333 48.667 -85.666 73.002 -108.999 73.002c-8.66699 0 -16.667 -2.66699 -24 -8s-11 -12 -11 -20c0 -12 26 -34.667 78 -68c61.333 -38.667 96.333 -62.667 105 -72c32.667 -35.333 49 -77 49 -125c0 -58 -19.667 -106.167 -59 -144.5
s-88.333 -57.5 -147 -57.5c-80 0 -151.667 40.667 -215 122l101 116c48.667 -55.333 85.667 -83 111 -83c13.333 0 25.666 4 36.999 12s17 18.667 17 32c0 17.333 -19.667 36.666 -59 57.999c-57.333 31.333 -94.333 54.666 -111 69.999c-39.333 36.667 -59 82 -59 136
s18.167 98.5 54.5 133.5s81.833 52.5 136.5 52.5c60.667 0 130.667 -38.667 210 -116z" />
    <glyph glyph-name="t" unicode="t" horiz-adv-x="339" 
d="M250 428v-473h-159v473h-94v148h94v198h159v-198h108v-148h-108z" />
    <glyph glyph-name="u" unicode="u" horiz-adv-x="608" 
d="M547 87c-44 -97.333 -126.333 -145.999 -247 -145.999c-120 0 -202.667 49 -248 147c-20 43.333 -30 105.666 -30 186.999v301h159v-293c0 -57.333 2.66699 -95 8 -113c14 -48 51 -72 111 -72c54.667 0 89.667 19.667 105 59c8 20.667 12 62.667 12 126v293h160v-305
c0 -78.667 -10 -140 -30 -184z" />
    <glyph glyph-name="v" unicode="v" 
d="M311 -45h-69l-287 621h172l149 -323l148 323h172z" />
    <glyph glyph-name="w" unicode="w" horiz-adv-x="831" 
d="M626 -45h-73l-139 315l-142 -315h-71l-264 621h168l134 -317l139 317h72l140 -318l135 318h171z" />
    <glyph glyph-name="x" unicode="x" horiz-adv-x="480" 
d="M378 -45l-140 192l-137 -192h-193l234 324l-215 297h193l118 -164l118 164h193l-214 -297l237 -324h-194z" />
    <glyph glyph-name="y" unicode="y" horiz-adv-x="536" 
d="M237 -239h-171l122 279l-238 536h170l154 -342l147 342h172z" />
    <glyph glyph-name="z" unicode="z" horiz-adv-x="425" 
d="M204 106h254v-151h-536l301 471h-235v150h517z" />
    <glyph glyph-name="braceleft" unicode="{" horiz-adv-x="351" 
d="M292 -265c-88 0 -145.668 29.332 -173.001 87.999c-16.667 36.667 -25.334 102.334 -26.001 197.001c0 53.333 -3 89.333 -9 108c-7.33301 23.333 -38 35.666 -92 36.999v167c52 1.33301 83.333 13.666 94 36.999c4.66699 10 7 47.333 7 112
c0.666992 78.667 5.33398 133.334 14.001 164.001c16.667 58 54 95 112 111c16.667 4.66699 41 7 73 7h72v-166h-60c-21.333 0 -33.666 -3.66699 -36.999 -11c-1.33301 -2 -2 -17 -2 -45c0 -81.333 -1 -131.333 -3 -150c-6.66699 -60 -27.667 -107.333 -63 -142
c44 -42 66 -115.333 66 -220c0 -77.333 2.33301 -119.666 7 -126.999h13c16 -0.666992 42.333 -1 79 -1v-166h-72z" />
    <glyph glyph-name="bar" unicode="|" horiz-adv-x="672" 
d="M256 -239v1020h160v-1020h-160z" />
    <glyph glyph-name="braceright" unicode="}" horiz-adv-x="351" 
d="M289 159c-18.667 -11.333 -28.1689 -35 -28.502 -71s-1.5 -89.667 -3.5 -161c-2.66699 -59.333 -17 -104.333 -43 -135c-32 -38 -83.667 -57 -155 -57h-72v166h60c22 0 34.667 3.33301 38 10c0.666992 2 1 17.333 1 46c0 80.667 1.33301 132 4 154
c7.33301 58.667 28 104.667 62 138c-28 27.333 -47 62 -57 104c-6 26 -9 64.667 -9 116c0 91.333 0.666992 114.333 2 69c-1.33301 38 -8 57.667 -20 59h-81v166h72c120 0 185.667 -59.333 197 -178c0.666992 -10 1.33398 -45.667 2.00098 -107
c0 -48 0.666992 -75.667 2 -83c5.33301 -34 20.333 -54 45 -60c5.33301 -1.33301 23.333 -2.33301 54 -3v-168c-41.333 0 -64.666 -1.66699 -69.999 -5z" />
    <glyph glyph-name="asciitilde" unicode="~" horiz-adv-x="606" 
d="M486 248c-20 -6.66699 -39.3311 -10 -57.998 -10c-35.333 0 -76.333 10 -123 30c-74 32 -114.667 48 -122 48c-20 0 -77.667 -28.667 -173 -86v183c77.333 44.667 133.666 67 168.999 67c30 0 61.667 -7 95 -21l78 -35c38.667 -16.667 63.667 -25 75 -25
c15.333 0 44.666 13 87.999 39l81 52v-187c-25.333 -14.667 -62 -33 -110 -55z" />
    <glyph glyph-name="copyright" unicode="&#xa9;" horiz-adv-x="747" 
d="M745 156c-26.667 -46.667 -51.668 -80.667 -75.001 -102c-15.333 -14 -42.666 -32.333 -81.999 -55c-66 -38 -137.333 -57 -214 -57c-120 0 -221.5 41.333 -304.5 124s-124.5 184 -124.5 304s41.5 221.167 124.5 303.5s184.5 123.5 304.5 123.5
c119.333 0 220.5 -41.333 303.5 -124s124.5 -183.667 124.5 -303c0 -76.667 -19 -148 -57 -214zM620.999 512c-16 28 -30.5 48.501 -43.5 61.501s-33.5 27.5 -61.5 43.5c-44 25.333 -91.333 38 -142 38c-80 0 -147.667 -27.5 -203 -82.5s-83 -122.5 -83 -202.5
s27.667 -147.667 83 -203s123 -83 203 -83s147.5 27.667 202.5 83s82.5 123 82.5 203c0 51.333 -12.667 98.666 -38 141.999zM531.999 159.001c-26.667 -24.667 -50 -40.8311 -70 -48.498s-48.667 -11.5 -86 -11.5c-78 0 -139.333 25.667 -184 77
c-42.667 48.667 -64 112.667 -64 192s21 144.666 63 195.999c45.333 54.667 107 82 185 82c76.667 0 134 -21.333 172 -64c35.333 -38.667 56.333 -97.334 63 -176.001h-152c-7.33301 32 -14.333 53 -21 63c-11.333 16 -30.666 24 -57.999 24c-61.333 0 -92 -42 -92 -126
c0 -82 28.667 -123 86 -123c43.333 0 70.666 40 81.999 120h155c-10 -96.667 -36.333 -165 -79 -205z" />
    <glyph glyph-name="registered" unicode="&#xae;" horiz-adv-x="747" 
d="M745 157c-26.667 -46 -51.668 -80 -75.001 -102c-16.667 -15.333 -44 -34 -82 -56c-66 -38 -137.333 -57 -214 -57c-119.333 0 -220.666 41.333 -303.999 124s-125 183.667 -125 303c0 120 41.5 221.667 124.5 305s184.5 125 304.5 125
c119.333 0 220.5 -41.5 303.5 -124.5s124.5 -184.167 124.5 -303.5c0 -76.667 -19 -148 -57 -214zM619.999 513c-16 28 -30.333 48.668 -43 62.001s-32.667 28 -60 44c-42.667 25.333 -90 38 -142 38c-80.667 0 -148.667 -27.667 -204 -83s-83 -123.333 -83 -204
c0 -80 27.833 -147.667 83.5 -203s123.5 -83 203.5 -83s147.333 27.833 202 83.5s82 123.5 82 203.5c0 49.333 -13 96.666 -39 141.999zM460.999 148.001c-9.33301 34 -14.667 54.001 -16 60.001c-5.33301 24 -8.33301 44.333 -9 61c0 4.66699 -0.666992 11.667 -2 21
c-3.33301 1.33301 -16.333 2 -39 2h-66v-144h-160v491h229c43.333 0 76 -3.66699 98 -11c33.333 -10.667 59 -30.5 77 -59.5s27 -61.5 27 -97.5c0 -38.667 -10.333 -71 -31 -97c17.333 -24.667 26 -58.334 26 -101.001v-30c0 -19.333 13.333 -38 40 -56l66 -39h-240z
M396.998 486.002h-68v-41h64c18 0 28.333 0.333008 31 1c10.667 2 16 8.66699 16 20c0 12 -4.33301 18.667 -13 20c0.666992 0 -9.33301 0 -30 0z" />
    <glyph glyph-name="maqaf" unicode="&#x5be;" horiz-adv-x="308" 
d="M-13 195v150h358v-150h-358z" />
    <glyph glyph-name="sofpasuq" unicode="&#x5c3;" horiz-adv-x="203" 
d="M151 379c-29.333 0 -54.167 10.167 -74.5 30.5s-30.5 45.166 -30.5 74.499s10.167 54.333 30.5 75s45.166 31 74.499 31c30 0 55 -10.167 75 -30.5s30 -45.5 30 -75.5c0 -29.333 -10.167 -54.166 -30.5 -74.499s-45.166 -30.5 -74.499 -30.5zM150.999 -59
c-29.333 0 -54.166 10.333 -74.499 31s-30.5 45.667 -30.5 75s10.167 54.166 30.5 74.499s45.166 30.5 74.499 30.5s54.166 -10.167 74.499 -30.5s30.5 -45.166 30.5 -74.499s-10.167 -54.333 -30.5 -75s-45.166 -31 -74.499 -31z" />
    <glyph glyph-name="alef" unicode="&#x5d0;" horiz-adv-x="754" 
d="M574 -45l-240 321l-146 -321h-203l216 467l-236 325h215l238 -311l150 311h193l-223 -463l254 -329h-218z" />
    <glyph glyph-name="bet" unicode="&#x5d1;" horiz-adv-x="748" 
d="M14 -45v175.998h453v283c0 122.667 -49.667 184 -149 184c-35.333 0 -74.333 -8.33301 -117 -25c-34 -13.333 -94 -55.666 -180 -126.999v229c16.667 10 42 24.333 76 43c26.667 14.667 53.667 25.334 81 32.001c45.333 11.333 90.333 17 135 17
c113.333 0 200 -31.333 260 -94c58 -61.333 87 -149 87 -263v-279h79v-176h-725z" />
    <glyph glyph-name="gimel" unicode="&#x5d2;" horiz-adv-x="532" 
d="M21 469l0.00488281 178c23.333 33.333 57.666 61.666 102.999 84.999c42 21.333 79 32 111 32c44 0 84 -9.33301 120 -28c38.667 -20.667 67 -50 85 -88c20 -42 30 -100 30 -174v-266l61 -253h-183l-28 90c-42.667 -46 -90.334 -77 -143.001 -93
c-4 -1.33301 -24.667 -5.66602 -62 -12.999c-17.333 -1.33301 -58.333 -3.66602 -123 -6.99902l42 204l36 -8c5.33301 0 13.166 -0.833008 23.499 -2.5s18.166 -2.5 23.499 -2.5c30.667 0.666992 60.667 10.167 90 28.5s52.666 41.166 69.999 68.499v294
c0 22.667 -6 40 -18 52c-9.33301 10 -20.333 15 -33 15h-5c-6.66699 2 -14 3 -22 3c-28.667 0 -61.667 -13.667 -99 -41c-28.667 -21.333 -55 -46 -79 -74z" />
    <glyph glyph-name="dalet" unicode="&#x5d3;" horiz-adv-x="682" 
d="M559 571v-616h-187v616h-363v176h664v-176h-114z" />
    <glyph glyph-name="he" unicode="&#x5d4;" horiz-adv-x="708" 
d="M501 -45l0.000976562 459c0 124.667 -54.667 187 -164 187c-55.333 0 -113 -16.667 -173 -50c-28 -15.333 -78 -50 -150 -104v203c100 81.333 209.667 122 329 122c113.333 0 200.166 -31.833 260.499 -95.5s90.5 -152.5 90.5 -266.5v-455h-193zM18.001 -45v404h193v-404
h-193z" />
    <glyph glyph-name="vav" unicode="&#x5d5;" horiz-adv-x="229" 
d="M18 -45v792h193v-792h-193z" />
    <glyph glyph-name="zayin" unicode="&#x5d6;" horiz-adv-x="398" 
d="M278 571c-6 -10.667 -9 -29.333 -9 -56l-2 -560h-179l-2 518c0 46 18.333 78.667 55 98h-132v176h381v-176h-112z" />
    <glyph glyph-name="het" unicode="&#x5d7;" horiz-adv-x="727" 
d="M521 -45l-0.000976562 458.998c0 124.667 -60.333 187 -181 187c-49.333 0 -94 -6.33301 -134 -19v-627h-192v730c118.667 59.333 231.334 88.333 338.001 87c113.333 -1.33301 201.833 -33.666 265.5 -96.999s95.5 -151.666 95.5 -264.999v-455h-192z" />
    <glyph glyph-name="tet" unicode="&#x5d8;" horiz-adv-x="767" 
d="M739 232c-45.333 -192.667 -163.332 -290.665 -353.999 -293.998c-119.333 -2 -214 38.667 -284 122c-58 68.667 -87 152 -87 250v440h192v-444c0 -54 15.667 -99.667 47 -137c33.333 -40.667 76.333 -60.667 129 -60c74.667 0.666992 126.667 30.667 156 90
c20.667 42 31 104.667 31 188c0 43.333 -5.33301 84 -16 122c-16 55.333 -40.667 83.333 -74 84c-20.667 0.666992 -36 -1 -46 -5c-25.333 -10 -52 -26.667 -80 -50l-75 -98v236c20.667 28.667 42 49 64 61c43.333 23.333 94.666 33.666 153.999 30.999
c92 -4.66699 161 -48.667 207 -132c36.667 -66.667 55 -147.334 55 -242.001c0 -54 -6.33301 -108 -19 -162z" />
    <glyph glyph-name="yod" unicode="&#x5d9;" horiz-adv-x="229" 
d="M102 283l-84 -55v519h193v-403z" />
    <glyph glyph-name="kaffinal" unicode="&#x5da;" horiz-adv-x="688" 
d="M482 -255l-0.000976562 669.001c0 117.333 -53 178.333 -159 183c-76.667 3.33301 -157 -30 -241 -100h-68v188c120.667 60 229.334 87 326.001 81c107.333 -6.66699 189.833 -40.834 247.5 -102.501s86.5 -146.167 86.5 -253.5v-665h-192z" />
    <glyph glyph-name="kaf" unicode="&#x5db;" horiz-adv-x="682" 
d="M584 73c-68.667 -89.333 -160.998 -134.001 -276.998 -134.001c-52 0 -102.667 8.33301 -152 25c-60.667 20.667 -107.667 54 -141 100v207l69 -60c72 -67.333 145.667 -100.333 221 -99c59.333 1.33301 105.666 28 138.999 80c28.667 44.667 43 98.667 43 162
c0 61.333 -13.667 114.666 -41 159.999c-32 52.667 -76.667 80.334 -134 83.001c-72.667 3.33301 -149 -30 -229 -100l-68 -60v197c46 46.667 98.667 81.667 158 105c54 21.333 106 30.333 156 27c107.333 -7.33301 192.666 -51.666 255.999 -132.999
c59.333 -76.667 89 -170 89 -280s-29.667 -203.333 -89 -280z" />
    <glyph glyph-name="lamed" unicode="&#x5dc;" horiz-adv-x="611" 
d="M313 -65l-154 90l229 546h-374v407h194l-2 -231h397v-123z" />
    <glyph glyph-name="memfinal" unicode="&#x5dd;" horiz-adv-x="737" 
d="M14 -45l-0.000976562 729.998c118.667 59.333 231.334 88.333 338.001 87c114 -1.33301 204.333 -33.666 271 -96.999s100 -151.666 100 -264.999v-455h-709zM530.999 413.998c0 60 -16.667 106.167 -50 138.5s-80.333 48.5 -141 48.5c-49.333 0 -94 -6.33301 -134 -19
v-451h325v283z" />
    <glyph glyph-name="mem" unicode="&#x5de;" horiz-adv-x="745" 
d="M346 -45v176.001h192v283c0 55.333 -6 95.666 -18 120.999c-17.333 38 -50 57 -98 57c-33.333 0 -67.333 -9.66699 -102 -29c-60 -33.333 -100 -59.333 -120 -78v-530h-191v792h189v-66c84.667 54 164 81 238 81c98.667 0 174 -35.333 226 -106
c46 -62.667 69 -144.667 69 -246v-455h-385z" />
    <glyph glyph-name="nunfinal" unicode="&#x5df;" horiz-adv-x="229" 
d="M18 -255v1002h193v-1002h-193z" />
    <glyph glyph-name="nun" unicode="&#x5e0;" horiz-adv-x="445" 
d="M14 -45v176h225v383c0 51.333 -10 77 -30 77c-30.667 0 -66 -16.667 -106 -50l-68 -50v167c22 33.333 50.667 59 86 77c30 15.333 60 23 90 23c147.333 0 221 -94.667 221 -284v-519h-418z" />
    <glyph glyph-name="samekh" unicode="&#x5e1;" horiz-adv-x="764" 
d="M718 166c-56.667 -149.333 -167.666 -225.334 -332.999 -228.001c-119.333 -2 -214 38.667 -284 122c-58 68.667 -87 152 -87 250v440h476c67.333 0 123.666 -24 168.999 -72c40 -43.333 67.333 -99.666 82 -168.999c9.33301 -44.667 14 -88 14 -130
c0 -77.333 -12.333 -148.333 -37 -213zM554.001 469.999c-14 69.333 -39.667 103.999 -77 103.999h-271v-268c0 -54 15.667 -99.667 47 -137c33.333 -40.667 76.333 -60.667 129 -60c120.667 1.33301 181 89 181 263c0 34.667 -3 67.334 -9 98.001z" />
    <glyph glyph-name="ayin" unicode="&#x5e2;" horiz-adv-x="680" 
d="M367 131c75.333 1.33301 113.001 69.668 113.001 205.001v411h187v-447c0 -154.667 -53.333 -259.334 -160 -314.001c-40.667 -20.667 -82.334 -31 -125.001 -31h-350v176h142l-180 616h197z" />
    <glyph glyph-name="pefinal" unicode="&#x5e3;" horiz-adv-x="739" 
d="M533 -255l-0.000976562 620c0 64.667 -13.333 118 -40 160c-31.333 50 -77.666 75 -138.999 75c-26 0 -52.333 -5.33301 -79 -16c-31.333 -12.667 -52.333 -28.667 -63 -48c-14 -26 -21 -50.333 -21 -73c0 -39.333 27.333 -67.666 82 -84.999v-185
c-176.667 45.333 -265 138.666 -265 279.999c0 91.333 37 165 111 221c66.667 50.667 146 76 238 76c116 0 207.667 -40 275 -120c62.667 -74.667 94 -171 94 -289v-616h-193z" />
    <glyph glyph-name="pe" unicode="&#x5e4;" horiz-adv-x="735" 
d="M635 70c-72 -87.333 -170.337 -131 -295.004 -131c-50 0 -104 10.333 -162 31c-62.667 22 -110 49.667 -142 83v218l82 -77c34 -31.333 70 -53.666 108 -66.999c29.333 -10 65.666 -15 108.999 -15c68.667 0 120.334 26 155.001 78c30.667 44.667 45 102.667 43 174
c-2 66 -15.333 119.333 -40 160c-31.333 50.667 -77.666 76 -138.999 76c-26 0 -52.333 -5.33301 -79 -16c-31.333 -12.667 -52.333 -28.667 -63 -48c-14 -26 -21 -50.333 -21 -73c0 -16 14.667 -36.333 44 -61c24.667 -20.667 46.334 -35 65.001 -43v-171
c-104.667 20 -181.667 63 -231 129c-40 53.333 -60 104.666 -60 153.999c0 92.667 35.667 166.667 107 222c66 51.333 146.333 77 241 77c116.667 0 208 -39.667 274 -119c60.667 -72.667 92.334 -168.667 95.001 -288c2.66699 -118 -27.666 -215.667 -90.999 -293z" />
    <glyph glyph-name="tsadifinal" unicode="&#x5e5;" horiz-adv-x="679" 
d="M532 -255l-555 1002h206l156 -289l144 289h208l-253 -462l298 -540h-204z" />
    <glyph glyph-name="tsadi" unicode="&#x5e6;" horiz-adv-x="652" 
d="M30 -45v176l347 -1l-419 617h223l170 -259l114 259h202l-189 -433l259 -359h-707z" />
    <glyph glyph-name="qof" unicode="&#x5e7;" horiz-adv-x="685" 
d="M462 -44c-40 0 -64.3291 0.999023 -72.9961 2.99902c-18.667 4.66699 -46.334 18.334 -83.001 41.001v203c48 -37.333 78.667 -59 92 -65c7.33301 -3.33301 23.666 -5 48.999 -5c31.333 0 49.666 17.667 54.999 53l1 385h-489v176h672v-591c0 -59.333 -23 -108 -69 -146
c-42.667 -36 -94.334 -54 -155.001 -54zM18.0039 -255.001l-2 758h195v-758h-193z" />
    <glyph glyph-name="resh" unicode="&#x5e8;" horiz-adv-x="708" 
d="M501 -45l0.000976562 459c0 124.667 -54.667 187 -164 187c-55.333 0 -113 -16.667 -173 -50c-28 -15.333 -78 -50 -150 -104v203c100 81.333 209.667 122 329 122c113.333 0 200.166 -31.833 260.499 -95.5s90.5 -152.5 90.5 -266.5v-455h-193z" />
    <glyph glyph-name="shin" unicode="&#x5e9;" horiz-adv-x="827" 
d="M732 89c-73.333 -100 -180.334 -150.001 -321.001 -150.001c-124 0 -221.667 40 -293 120c-69.333 76.667 -104 177.334 -104 302.001v386h192v-382c0 -17.333 1 -34 3 -50c72 20 108 77.667 108 173v259h192v-255c0 -79.333 -21.667 -147 -65 -203
s-103.333 -94 -180 -114c34.667 -42 83.667 -63 147 -63c70.667 0 124.334 25.333 161.001 76c32.667 44.667 49 103.667 49 177v382h192v-386c0 -107.333 -27 -198 -81 -272z" />
    <glyph glyph-name="tav" unicode="&#x5ea;" horiz-adv-x="875" 
d="M669 -45l-0.000976562 458.998c0 124.667 -61 187 -183 187c-50 0 -95.333 -6.33301 -136 -19v-402c0 -73.333 -19 -131 -57 -173c-39.333 -44 -95.333 -66 -168 -66c-6.66699 0 -21 3.66699 -43 11c-32 11.333 -56.333 19.333 -73 24v176l58 -20
c25.333 -10 44.333 -15 57 -15c16.667 0 27.334 14.333 32.001 43c1.33301 10 2 30.667 2 62v463c118.667 59.333 231.667 88.333 339 87c113.333 -1.33301 202.333 -33.666 267 -96.999s97 -151.666 97 -264.999v-455h-192z" />
    <glyph glyph-name="geresh" unicode="&#x5f3;" horiz-adv-x="167" 
d="M167 465h-137l-14 316h167z" />
    <glyph glyph-name="gershayim" unicode="&#x5f4;" horiz-adv-x="371" 
d="M318 465h-137l-14 316h165zM128 465h-137l-14 316h165z" />
    <glyph glyph-name="newsheqel" unicode="&#x20aa;" horiz-adv-x="827" 
d="M752 89c-73.333 -100 -180.334 -150.001 -321.001 -150.001c-124 0 -221.667 40 -293 120c-69.333 76.667 -104 177.334 -104 302.001v156h192v-152c0 -62.667 8.66699 -108 26 -136c35.333 -78 95 -117 179 -117c70.667 0 124.334 25.333 161.001 76
c32.667 44.667 49 103.667 49 177v382h192v-386c0 -107.333 -27 -198 -81 -272zM319.999 184.999v228.998c0 124.667 -60 187 -180 187c-49.333 0 -94 -6.33301 -134 -19v-627h-193v730c119.333 59.333 232 88.333 338 87c114 -1.33301 202.833 -33.666 266.5 -96.999
s95.5 -151.666 95.5 -264.999v-225h-193z" />
    <glyph glyph-name=".null" horiz-adv-x="0" 
 />
    <glyph glyph-name="nonmarkingreturn" horiz-adv-x="285" 
 />
    <glyph glyph-name="glyph100" horiz-adv-x="285" 
 />
    <glyph glyph-name="glyph101" horiz-adv-x="285" 
 />
    <glyph glyph-name="glyph100" horiz-adv-x="285" 
 />
    <glyph glyph-name="glyph101" horiz-adv-x="285" 
 />
    <glyph glyph-name="glyph113" horiz-adv-x="285" 
 />
    <glyph glyph-name="glyph114" horiz-adv-x="285" 
 />
    <glyph glyph-name="glyph104" horiz-adv-x="285" 
 />
    <glyph glyph-name="glyph105" horiz-adv-x="285" 
 />
    <glyph glyph-name="glyph227" horiz-adv-x="285" 
 />
    <glyph glyph-name="glyph228" horiz-adv-x="285" 
 />
  </font>
</defs>
</svg>
