<?xml version="1.0" standalone="no"?>
<!DOCTYPE svg PUBLIC "-//W3C//DTD SVG 1.1//EN" "http://www.w3.org/Graphics/SVG/1.1/DTD/svg11.dtd" >
<svg>
<metadata>
Created by FontForge 20090914 at Tue Sep 25 21:04:33 2012
 By www-data
Copyright &#194;&#169; 2012 Natanel Gemert, All Rights Reserved
</metadata>
<defs>
<font id="Bob" horiz-adv-x="285" >
  <font-face 
    font-family="Bob"
    font-weight="700"
    font-stretch="normal"
    units-per-em="1000"
    panose-1="0 0 7 0 0 0 0 0 0 0"
    ascent="800"
    descent="-200"
    x-height="545.999"
    cap-height="733"
    bbox="-157.001 -235.002 933 948"
    underline-thickness="50"
    underline-position="-108"
    unicode-range="U+0020-U+20AA"
  />
<missing-glyph horiz-adv-x="500" 
d="M63 0v803h375v-803h-375zM125 63h250v678h-250v-678z" />
    <glyph glyph-name=".notdef" horiz-adv-x="500" 
d="M63 0v803h375v-803h-375zM125 63h250v678h-250v-678z" />
    <glyph glyph-name="space" unicode=" " 
 />
    <glyph glyph-name="exclam" unicode="!" horiz-adv-x="295" 
d="M184 315l-13.999 -47l-8 -30c-2.66699 -10.667 -11.667 -16 -27 -16c-16 0 -28 12.667 -36 38c-6.66699 20 -13.334 56.333 -20.001 109c-9.33301 73.333 -14 133 -14 179c0 105.333 23.667 158 71 158c46.667 0 70 -51.333 70 -154
c0 -108.667 -7.33301 -187.667 -22 -237zM147.001 -29c-21.333 0 -39.166 7.33301 -53.499 22s-21.5 32.667 -21.5 54s7.16699 39.166 21.5 53.499s32.166 21.5 53.499 21.5s39.333 -7.16699 54 -21.5s22 -32.166 22 -53.499s-7.33301 -39.333 -22 -54s-32.667 -22 -54 -22z
" />
    <glyph glyph-name="quotedbl" unicode="&#x22;" horiz-adv-x="309" 
d="M289 495h-79l-12 256h103zM99 495h-79l-12 256h103z" />
    <glyph glyph-name="numbersign" unicode="#" horiz-adv-x="720" 
d="M526 442l-18 -133h109v-83h-123l-35 -241h-85l35 241h-132l-38 -241h-84l37 241h-117v83h129l22 133h-121v83h133l34 229h83l-33 -229h131l34 229h85l-34 -229h107v-83h-119zM309 442l-20 -133h131l22 133h-133z" />
    <glyph glyph-name="dollar" unicode="$" horiz-adv-x="554" 
d="M338 -32v-152.999h-94v153c-96.667 16.667 -173 65.334 -229 146.001l76 57c38 -46 89 -82.333 153 -109v280c-31.333 16 -56.333 29.667 -75 41c-30.667 18.667 -52.667 36 -66 52c-24.667 30 -37 67 -37 111c0 98 59.333 160.333 178 187v51h94v-55
c44.667 -14 78.334 -31.333 101.001 -52c13.333 -12.667 30.666 -33.334 51.999 -62.001l-77 -62c-8.66699 11.333 -34 42 -76 92v-234c72 -39.333 120.333 -72 145 -98c36 -38 54 -84.333 54 -139c0 -106.667 -66.333 -175.334 -199 -206.001zM244 651.001
c-51.333 -39.333 -77 -73.667 -77 -103c0 -21.333 25.667 -59 77 -113v216zM338 309v-248c66.667 40 100 77 100 111c0 23.333 -12.333 49 -37 77c-10 11.333 -31 31.333 -63 60z" />
    <glyph glyph-name="percent" unicode="%" horiz-adv-x="775" 
d="M583 -36c-52 0 -95.5 17.667 -130.5 53s-52.5 79 -52.5 131s17.5 95.667 52.5 131s78.5 53 130.5 53s95.667 -17.667 131 -53s53 -79 53 -131s-17.667 -95.667 -53 -131s-79 -53 -131 -53zM159 -65l-99.999 -0.000976562l470 720
c-64 -7.33301 -119.667 -11.666 -167 -12.999c8.66699 -36 13 -60 13 -72c0 -54 -17.333 -98.833 -52 -134.5s-79 -53.5 -133 -53.5c-52 0 -95.5 17.667 -130.5 53s-52.5 79 -52.5 131c0 72 30.667 125.333 92 160c29.333 16.667 59.666 25 90.999 25
c22 0 54.833 -3.66699 98.5 -11s76.5 -11 98.5 -11c66 0 142 12 228 36h87zM191.001 658.999c-26 0 -47.834 -8.83301 -65.501 -26.5s-26.5 -39.5 -26.5 -65.5s8.83301 -47.833 26.5 -65.5s39.5 -26.5 65.5 -26.5c26.667 0 48.834 8.66699 66.501 26s26.5 39.333 26.5 66
c0 26 -9 47.833 -27 65.5s-40 26.5 -66 26.5zM583 239.999c-26 0 -47.668 -8.83301 -65.001 -26.5s-26 -39.5 -26 -65.5s8.66699 -47.833 26 -65.5s39 -26.5 65 -26.5c26.667 0 48.834 8.66699 66.501 26s26.5 39.333 26.5 66c0 26 -9 47.833 -27 65.5s-40 26.5 -66 26.5z
" />
    <glyph glyph-name="ampersand" unicode="&#x26;" horiz-adv-x="757" 
d="M624 -15l-87 91c-101.333 -72.667 -190 -109 -266 -109c-56 0 -102.667 16 -140 48c-39.333 34 -59 78.333 -59 133c0 72 55.667 154.333 167 247c-58 72 -87 128 -87 168c0 44.667 18.667 80.667 56 108c34 24 74 36 120 36s85.667 -12.667 119 -38
c36 -27.333 54 -63.333 54 -108c0 -47.333 -39.667 -108.333 -119 -183l163 -167l87 76l69 -74c-24.667 -22.667 -52.667 -46.667 -84 -72l147 -156h-140zM348 607c-7.33301 1.33301 -15 2 -23 2c-47.333 0 -71 -16 -71 -48c0 -17.333 21.667 -53.333 65 -108
c52.667 49.333 79 86 79 110c0 23.333 -16.667 38 -50 44zM361 256c-2 2 -21.002 22.667 -57.002 62c-86.667 -71.333 -130 -126.333 -130 -165c0 -26 11.333 -47.667 34 -65c20.667 -16 44.334 -24 71.001 -24c38.667 0 101.334 28 188.001 84z" />
    <glyph glyph-name="quotesingle" unicode="'" horiz-adv-x="198" 
d="M138 495h-79l-12 256h104z" />
    <glyph glyph-name="parenleft" unicode="(" horiz-adv-x="369" 
d="M218 251c0 -160.667 30 -318.667 90 -474h-109c-56 142 -84 297 -84 465c0 182.667 35 357 105 523h114c-77.333 -168.667 -116 -340 -116 -514z" />
    <glyph glyph-name="parenright" unicode=")" horiz-adv-x="369" 
d="M228 30c-11.333 -56.667 -23.667 -105.333 -37 -146c-8.66699 -26 -22.667 -61.667 -42 -107h-114c77.333 170 116 341.333 116 514c0 160.667 -30 318.667 -90 474h109c56 -140.667 84 -295.667 84 -465c0 -92 -8.66699 -182 -26 -270z" />
    <glyph glyph-name="asterisk" unicode="*" horiz-adv-x="425" 
d="M354 425l-106 75l12 -129h-96l14 129l-108 -75l-48 83l121 54l-121 54l49 83l105 -76l-12 128h96l-12 -127l106 75l49 -83l-121 -54l121 -54z" />
    <glyph glyph-name="plus" unicode="+" horiz-adv-x="606" 
d="M351 311v-212h-96v212h-214v97h214v211h96v-211h214v-97h-214z" />
    <glyph glyph-name="comma" unicode="," horiz-adv-x="277" 
d="M118 -103l-75 32l93 223l95 -45z" />
    <glyph glyph-name="hyphen" unicode="-" horiz-adv-x="332" 
d="M17 225v90h298v-90h-298z" />
    <glyph glyph-name="hyphen" unicode="&#x2010;" horiz-adv-x="332" 
d="M17 225v90h298v-90h-298z" />
    <glyph glyph-name="period" unicode="." horiz-adv-x="277" 
d="M151 -29c-21.333 0 -39.166 7.33301 -53.499 22s-21.5 32.667 -21.5 54s7.16699 39.166 21.5 53.499s32.166 21.5 53.499 21.5s39.166 -7.16699 53.499 -21.5s21.5 -32.166 21.5 -53.499s-7.16699 -39.333 -21.5 -54s-32.166 -22 -53.499 -22z" />
    <glyph glyph-name="slash" unicode="/" horiz-adv-x="437" 
d="M120 -113h-106l308 864h108z" />
    <glyph glyph-name="zero" unicode="0" horiz-adv-x="554" 
d="M504 139c-14.667 -36.667 -29.002 -64 -43.002 -82c-8 -10.667 -23.333 -24.667 -46 -42c-41.333 -32 -88.666 -48 -141.999 -48c-105.333 0 -180 55.667 -224 167c-21.333 54 -32 129 -32 225c0 174 41 290.333 123 349c40 28.667 84.333 43 133 43
c106.667 0 183.334 -56.667 230.001 -170c22.667 -54.667 34 -128.667 34 -222c0 -92.667 -11 -166 -33 -220zM274.998 653c-66.667 0 -113 -38.668 -139 -116.001c-14 -41.333 -21 -101.333 -21 -180c0 -196.667 53.333 -295 160 -295c110 0 165 98.333 165 295
c0 74.667 -9.66699 137.334 -29 188.001c-28 72 -73.333 108 -136 108z" />
    <glyph glyph-name="one" unicode="1" horiz-adv-x="554" 
d="M240 -15v547l-89 -86l-1 139l191 166v-766h-101z" />
    <glyph glyph-name="two" unicode="2" horiz-adv-x="554" 
d="M-5 -15l337.997 365c60 64.667 90 121.334 90 170.001c0 39.333 -13.667 71.333 -41 96s-60.666 37 -99.999 37c-87.333 0 -137.666 -58.333 -150.999 -175h-99c6 81.333 29 145.666 69 192.999c44.667 53.333 106.334 80 185.001 80c68 0 124.5 -21.333 169.5 -64
s67.5 -98 67.5 -166c0 -50.667 -17 -102 -51 -154c-18.667 -28.667 -56.667 -74 -114 -136l-139 -147h314v-99h-538z" />
    <glyph glyph-name="three" unicode="3" horiz-adv-x="554" 
d="M496 90c-47.333 -82 -122.333 -123.001 -225 -123.001c-134.667 0 -219 80 -253 240h99c13.333 -44 28 -75.333 44 -94c26 -30.667 63 -46 111 -46c44 0 80.667 12.333 110 37c32 26.667 48 61.334 48 104.001c0 56.667 -26.333 97 -79 121c-22 10 -66 17.333 -132 22v95
c36 1.33301 64.667 5 86 11c54 15.333 81 46.666 81 93.999c0 30 -11.667 54.333 -35 73s-50.333 28 -81 28c-37.333 0 -67.333 -14.333 -90 -43c-12 -15.333 -24.333 -39.333 -37 -72h-102c19.333 68.667 44.333 119.667 75 153c38 40.667 89.333 61 154 61
c60.667 0 112 -18 154 -54c44.667 -37.333 67 -86 67 -146c0 -47.333 -24 -95.666 -72 -144.999c74.667 -57.333 112 -121.333 112 -192c0 -42.667 -11.667 -84 -35 -124z" />
    <glyph glyph-name="four" unicode="4" horiz-adv-x="554" 
d="M455 152v-167h-101v167h-357l421 599h37v-500h87v-99h-87zM354 488l-168 -237h168v237z" />
    <glyph glyph-name="five" unicode="5" horiz-adv-x="554" 
d="M491 97c-47.333 -86.667 -124.333 -129.999 -231 -129.999c-129.333 0 -208 74 -236 222h104c22 -83.333 67.333 -125 136 -125c46.667 0 84.667 17 114 51s44 74.667 44 122c0 46 -14.167 82.167 -42.5 108.5s-65.5 39.5 -111.5 39.5c-34 0 -92 -16.333 -174 -49l74 397
h339v-98h-259l-29 -159c36 4.66699 58 7 66 7c72 0 130 -23.333 174 -70s66 -106.334 66 -179.001c0 -50 -11.333 -95.667 -34 -137z" />
    <glyph glyph-name="six" unicode="6" horiz-adv-x="554" 
d="M494 83c-14 -24.667 -27.667 -43 -41 -55c-7.33301 -7.33301 -23 -17.333 -47 -30c-38 -20.667 -78.333 -31 -121 -31c-67.333 0 -123 22.333 -167 67s-66 100.667 -66 168c0 60.667 28 133 84 217l226 338l85 -55l-176 -267c169.333 -12 254 -89.333 254 -232
c0 -44.667 -10.333 -84.667 -31 -120zM288 339c-38.667 0 -71 -13 -97 -39s-39 -58.333 -39 -97s13 -71 39 -97s58.333 -39 97 -39s71 13 97 39s39 58.333 39 97s-13 71 -39 97s-58.333 39 -97 39z" />
    <glyph glyph-name="seven" unicode="7" horiz-adv-x="554" 
d="M149 -38l-84 44l326 629h-334v98h495z" />
    <glyph glyph-name="eight" unicode="8" horiz-adv-x="554" 
d="M477 50c-48 -55.333 -115 -82.999 -201 -82.999c-72 0 -132 20.667 -180 62c-51.333 43.333 -77 100.333 -77 171c0 70 39.667 135 119 195c-56.667 50.667 -85 102 -85 154c0 59.333 23.667 108.333 71 147c44 36.667 96.333 55 157 55s112.667 -19 156 -57
s65 -87 65 -147c0 -50.667 -27.667 -101.334 -83 -152.001c77.333 -58 116 -121 116 -189c0 -59.333 -19.333 -111.333 -58 -156zM277 652.001c-32.667 0 -60.335 -9.00098 -83.002 -27.001c-25.333 -19.333 -38 -45 -38 -77c0 -30 13 -55.833 39 -77.5
s54.333 -32.5 85 -32.5c32.667 0 60.834 10.667 84.501 32s35.5 48 35.5 80c0 32.667 -12.667 58.334 -38 77.001c-23.333 16.667 -51.666 25 -84.999 25zM388.999 301c-21.333 20 -40.667 32.333 -58 37c-12 3.33301 -28.667 5 -50 5c-43.333 0 -80.333 -13.333 -111 -40
c-32.667 -27.333 -49 -62.333 -49 -105c0 -43.333 15.667 -77 47 -101c28 -21.333 64.333 -32 109 -32c44 0 81 12.5 111 37.5s45 59.167 45 102.5c0 36.667 -14.667 68.667 -44 96z" />
    <glyph glyph-name="nine" unicode="9" horiz-adv-x="554" 
d="M422 298l-226 -337.002l-84 55l177 268c-44.667 2.66699 -80.667 8.33398 -108 17.001c-36.667 12 -66.667 31.333 -90 58c-38 44 -57 96 -57 156c0 68.667 22.667 125.167 68 169.5s102.333 66.5 171 66.5c67.333 0 123 -22.167 167 -66.5s66 -100.166 66 -167.499
c0 -62.667 -28 -135.667 -84 -219zM270 650.998c-38.667 0 -71 -13 -97 -39s-39 -58.333 -39 -97s13 -71 39 -97s58.333 -39 97 -39s71 13 97 39s39 58.333 39 97s-13 71 -39 97s-58.333 39 -97 39z" />
    <glyph glyph-name="colon" unicode=":" horiz-adv-x="277" 
d="M151 409c-21.333 0 -39.167 7.16699 -53.5 21.5s-21.5 32.166 -21.5 53.499s7.16699 39.333 21.5 54s32.166 22 53.499 22c22 0 40 -7.16699 54 -21.5s21 -32.5 21 -54.5c0 -21.333 -7.16699 -39.166 -21.5 -53.499s-32.166 -21.5 -53.499 -21.5zM150.999 -29
c-21.333 0 -39.166 7.33301 -53.499 22s-21.5 32.667 -21.5 54s7.16699 39.166 21.5 53.499s32.166 21.5 53.499 21.5s39.166 -7.16699 53.499 -21.5s21.5 -32.166 21.5 -53.499s-7.16699 -39.333 -21.5 -54s-32.166 -22 -53.499 -22z" />
    <glyph glyph-name="semicolon" unicode=";" horiz-adv-x="277" 
d="M151 409c-21.333 0 -39.167 7.16699 -53.5 21.5s-21.5 32.166 -21.5 53.499s7.16699 39.333 21.5 54s32.166 22 53.499 22c22 0 40 -7.16699 54 -21.5s21 -32.5 21 -54.5c0 -21.333 -7.16699 -39.166 -21.5 -53.499s-32.166 -21.5 -53.499 -21.5zM117.999 -103l-75 32
l93 223l95 -45z" />
    <glyph glyph-name="less" unicode="&#x3c;" horiz-adv-x="606" 
d="M36 317v83l534 244v-105l-389 -181l389 -179v-104z" />
    <glyph glyph-name="equal" unicode="=" horiz-adv-x="606" 
d="M41 418v97h524v-97h-524zM41 203v97h524v-97h-524z" />
    <glyph glyph-name="greater" unicode="&#x3e;" horiz-adv-x="606" 
d="M36 75v104l389 179l-389 181v105l534 -244v-83z" />
    <glyph glyph-name="question" unicode="?" horiz-adv-x="560" 
d="M458 445c-10 -14.667 -28.168 -33.5039 -54.501 -56.5039s-44.5 -41.5 -54.5 -55.5c-13.333 -19.333 -22.666 -55.666 -27.999 -108.999h-104c6 92.667 38 164.334 96 215.001c52 45.333 78 83.333 78 114c0 28.667 -11.667 51.334 -35 68.001
c-20.667 14.667 -46 22 -76 22c-60 0 -99 -31.667 -117 -95h-99c12 60.667 32 104 60 130c40.667 38 94.667 57 162 57c84 0 144.333 -30.667 181 -92c18 -30 27 -60.667 27 -92c0 -35.333 -12 -70.666 -36 -105.999zM266.999 -29.0039
c-21.333 0 -39.166 7.33301 -53.499 22s-21.5 32.667 -21.5 54s7.16699 39.166 21.5 53.499s32.166 21.5 53.499 21.5s39.333 -7.16699 54 -21.5s22 -32.166 22 -53.499s-7.33301 -39.333 -22 -54s-32.667 -22 -54 -22z" />
    <glyph glyph-name="at" unicode="@" horiz-adv-x="867" 
d="M666 37c-58 -43.333 -128 -65.001 -210 -65.001c-115.333 0 -211.5 37 -288.5 111s-115.5 168.333 -115.5 283c0 115.333 37.333 211 112 287s169.667 114 285 114c98.667 0 183.334 -29.667 254.001 -89c74.667 -62.667 112 -142.667 112 -240
c0 -126.667 -55 -218 -165 -274c-39.333 -20 -73 -30 -101 -30c-25.333 0 -49.333 11.333 -72 34c-35.333 -19.333 -66 -29 -92 -29c-54 0 -97 18.333 -129 55s-48 82.334 -48 137.001c0 68 20.5 125.667 61.5 173s95.167 71 162.5 71c32 0 71.667 -14 119 -42l8 37h82
c-14.667 -77.333 -37 -203.666 -67 -378.999c56 29.333 97.333 60.333 124 93c32.667 40 49 88 49 144c0 81.333 -30.333 146.666 -91 195.999c-56.667 46.667 -126.334 70 -209.001 70c-94 0 -172 -30.333 -234 -91s-93 -138 -93 -232c0 -95.333 31.667 -173.5 95 -234.5
s142.666 -91.5 237.999 -91.5c53.333 0 100 11 140 33c30 16.667 65.333 44.667 106 84h88c-51.333 -61.333 -91.666 -103 -120.999 -125zM500 465.999c-9.33301 12 -19.332 20 -29.999 24c-5.33301 2 -16.333 3 -33 3c-38.667 0 -69.834 -15.5 -93.501 -46.5
s-35.5 -66.5 -35.5 -106.5c0 -77.333 33.667 -116 101 -116c42 0 73 23.667 93 71c12.667 30 19 64 19 102c0 28 -7 51 -21 69z" />
    <glyph glyph-name="A" unicode="A" horiz-adv-x="740" 
d="M629 -15l-113 236h-290l-113 -236h-113l354 748h36l349 -748h-110zM372 531l-99 -210h198z" />
    <glyph glyph-name="B" unicode="B" horiz-adv-x="574" 
d="M287 -15l-212.999 -0.00195312v748h157c106.667 0 178.667 -29.667 216 -89c19.333 -30.667 29 -64.667 29 -102c0 -48 -22.667 -97 -68 -147c41.333 -25.333 72 -51 92 -77c23.333 -31.333 35 -68.666 35 -111.999c0 -67.333 -25 -121.666 -75 -162.999
c-46.667 -38.667 -104.334 -58 -173.001 -58zM293.001 630.998c-8 1.33301 -24.667 2 -50 2h-68v-200c95.333 0 155 17 179 51c12 17.333 18 36.666 18 57.999c0 50.667 -26.333 80.334 -79 89.001zM304.001 325.998c-19.333 3.33301 -62.332 4.99902 -128.999 4.99902v-246
h74c38 0 66.333 2.33301 85 7c27.333 6.66699 50.166 20.334 68.499 41.001s27.5 44.667 27.5 72c0 66 -42 106.333 -126 121z" />
    <glyph glyph-name="C" unicode="C" horiz-adv-x="813" 
d="M530 -28c-19.333 -3.33301 -48.332 -4.99805 -86.999 -4.99805c-130 0 -233 43.667 -309 131c-63.333 73.333 -95 161.666 -95 264.999c0 116 38 209.667 114 281s172.333 107 289 107c133.333 0 244.666 -56.333 333.999 -169l-80 -62c-74 87.333 -158.333 131 -253 131
c-86 0 -157.167 -27.5 -213.5 -82.5s-84.5 -125.5 -84.5 -211.5c0 -86.667 29 -157.334 87 -212.001c56 -53.333 127.667 -80 215 -80c88.667 0 172.334 41.333 251.001 124l80 -61c-76.667 -88.667 -159.334 -140.667 -248.001 -156z" />
    <glyph glyph-name="D" unicode="D" horiz-adv-x="744" 
d="M316 -15h-244.001v748h164c99.333 0 176.333 -8.33301 231 -25c78.667 -24 139 -69.667 181 -137c39.333 -62 59 -135.667 59 -221c0 -72 -15.667 -137.333 -47 -196c-34.667 -64 -83 -109.333 -145 -136c-51.333 -22 -117.666 -33 -198.999 -33zM424.999 614
c-41.333 12.667 -113.999 19 -217.999 19h-36v-550h68c97.333 0 164.666 6 201.999 18c109.333 35.333 164 118 164 248c0 63.333 -15 118 -45 164c-32 49.333 -77 83 -135 101z" />
    <glyph glyph-name="E" unicode="E" horiz-adv-x="536" 
d="M175 632v-194h337v-100h-337v-252h337v-101h-439v748h442v-101h-340z" />
    <glyph glyph-name="F" unicode="F" horiz-adv-x="485" 
d="M174 337v-352h-102v748h390v-101h-288v-194h288v-101h-288z" />
    <glyph glyph-name="G" unicode="G" horiz-adv-x="872" 
d="M735 69c-46.667 -46 -88.666 -75.332 -125.999 -87.999c-28 -9.33301 -77 -14 -147 -14c-138 0 -247 46.667 -327 140c-62 72.667 -93 156.667 -93 252c0 71.333 17.667 137.166 53 197.499s84 107.833 146 142.5s132 52 210 52c73.333 0 139.666 -14.667 198.999 -44
c44.667 -22 95.334 -58.333 152.001 -109l-78 -75c-92 84.667 -182 127 -270 127c-84.667 0 -156.334 -27 -215.001 -81c-61.333 -55.333 -92 -124.666 -92 -207.999c0 -85.333 32 -156.333 96 -213c61.333 -55.333 135 -83 221 -83c126 0 214 65 264 195h-230v99h339
c-4.66699 -130.667 -38.667 -227.334 -102 -290.001z" />
    <glyph glyph-name="H" unicode="H" horiz-adv-x="683" 
d="M509 -15v347h-335v-347h-103v748h103v-301h335v301h102v-748h-102z" />
    <glyph glyph-name="I" unicode="I" horiz-adv-x="226" 
d="M62 -15v748h102v-748h-102z" />
    <glyph glyph-name="J" unicode="J" horiz-adv-x="482" 
d="M391 72c-28 -70 -84.668 -105 -170.001 -105c-56 0 -122.333 29.333 -199 88l54 81c70.667 -48 119 -72 145 -72c38.667 0 64.334 19 77.001 57c6 18 9 56.333 9 115v497h103v-500c0 -76 -6.33301 -129.667 -19 -161z" />
    <glyph glyph-name="K" unicode="K" horiz-adv-x="591" 
d="M470 -15l-294 312v-312h-104v748h104v-249l265 249h141l-363 -338l387 -410h-136z" />
    <glyph glyph-name="L" unicode="L" horiz-adv-x="462" 
d="M72 -15v748h103v-649h276v-99h-379z" />
    <glyph glyph-name="M" unicode="M" horiz-adv-x="919" 
d="M780 -15l-66 478l-235 -478h-37l-240 482l-65 -482h-100l107 748h34l282 -570l280 570h34l108 -748h-102z" />
    <glyph glyph-name="N" unicode="N" horiz-adv-x="740" 
d="M629 -15l-452 518v-518h-104v748h37l456 -524v524h101v-748h-38z" />
    <glyph glyph-name="O" unicode="O" horiz-adv-x="869" 
d="M436 -33c-112.667 0 -206.667 36.833 -282 110.5s-113 166.5 -113 278.5s36.833 205.833 110.5 281.5s166.5 113.5 278.5 113.5c114.667 0 209.667 -36.833 285 -110.5s113 -167.5 113 -281.5c0 -112.667 -37.167 -206.167 -111.5 -280.5s-167.833 -111.5 -280.5 -111.5z
M685 507c-15.333 26.667 -30.167 47 -44.5 61s-34.833 28.667 -61.5 44c-46 26 -94.667 39 -146 39c-82.667 0 -151.167 -28.333 -205.5 -85s-81.5 -126.667 -81.5 -210c0 -82.667 27.167 -151.5 81.5 -206.5s122.833 -82.5 205.5 -82.5c84.667 0 154.167 27.5 208.5 82.5
s81.5 124.833 81.5 209.5c0 54.667 -12.667 104 -38 148z" />
    <glyph glyph-name="P" unicode="P" horiz-adv-x="592" 
d="M432 340c-4 -1.33301 -16.001 -4.33203 -36.001 -8.99902c-34 -8 -96 -12 -186 -12h-36v-334h-102v748h158c82.667 0 139.334 -3.66699 170.001 -11c47.333 -11.333 84.333 -34.5 111 -69.5s40 -76.833 40 -125.5c0 -40.667 -10.333 -78.334 -31 -113.001
c-22 -38 -51.333 -62.667 -88 -74zM364.999 628.001c-14 3.33301 -40.334 4.99902 -79.001 4.99902h-112v-214h61c22.667 0 38.334 -0.666992 47.001 -2c48 0.666992 81.667 4.66699 101 12c42 16 63 48.667 63 98c0 54.667 -27 88.334 -81 101.001z" />
    <glyph glyph-name="Q" unicode="Q" horiz-adv-x="871" 
d="M701 -72l-68.998 88.999c-67.333 -33.333 -132.333 -50 -195 -50c-112.667 0 -206.667 36.833 -282 110.5s-113 166.5 -113 278.5c0 113.333 37.167 207.5 111.5 282.5s168.166 112.5 281.499 112.5s207.166 -37 281.499 -111s111.5 -167.667 111.5 -281
c0 -101.333 -39 -195.666 -117 -282.999l116 -148h-126zM686.002 506.999c-16.667 28.667 -31.666 49.667 -44.999 63c-10.667 10 -31 23.667 -61 41c-46.667 26.667 -95 40 -145 40c-82.667 0 -151.334 -28.333 -206.001 -85s-82 -126.667 -82 -210
c0 -82.667 27.167 -151.5 81.5 -206.5s122.833 -82.5 205.5 -82.5c33.333 0 78.333 9.33301 135 28l-170 216h125l124 -156c50.667 70.667 76 138.667 76 204c0 54.667 -12.667 104 -38 148z" />
    <glyph glyph-name="R" unicode="R" horiz-adv-x="607" 
d="M455 -15l-277 358.998v-359h-102v748h158c80.667 0 136 -3.33301 166 -10c48 -10.667 86 -33.667 114 -69s42 -77.666 42 -126.999c0 -68.667 -22.333 -119.667 -67 -153c-34 -25.333 -88.667 -44.666 -164 -57.999l256 -331h-126zM369 626.998
c-17.333 4 -43.667 6 -79 6h-112v-214h61c23.333 0 39.333 -0.666992 48 -2c47.333 0.666992 81 5 101 13c42 16.667 63 49 63 97c0 54 -27.333 87.333 -82 100z" />
    <glyph glyph-name="S" unicode="S" horiz-adv-x="498" 
d="M360 553l-35.999 45.002c-28.667 32.667 -59.667 49 -93 49c-55.333 0 -83 -25.333 -83 -76c0 -27.333 13.667 -55 41 -83c7.33301 -7.33301 38 -31 92 -71c112 -82.667 168 -163.334 168 -242.001c0 -60 -21.333 -109.667 -64 -149s-94.334 -59 -155.001 -59
c-57.333 0 -106.333 18 -147 54c-28 24.667 -57.667 64 -89 118l86 53c50 -83.333 97.667 -125 143 -125c32.667 0 60.5 9.83301 83.5 29.5s34.5 45.5 34.5 77.5c0 43.333 -44 98.666 -132 165.999c-59.333 45.333 -98 78.666 -116 99.999
c-32.667 38.667 -49 81.334 -49 128.001c0 54 18 98 54 132s81 51 135 51c48 0 89.667 -14.333 125 -43c21.333 -17.333 49.333 -48 84 -92z" />
    <glyph glyph-name="T" unicode="T" horiz-adv-x="426" 
d="M265 633v-648h-103v648h-161v100h424v-100h-160z" />
    <glyph glyph-name="U" unicode="U" horiz-adv-x="655" 
d="M564 135c-14.667 -48 -42.3359 -88.001 -83.0029 -120.001c-25.333 -20 -47.666 -33 -66.999 -39s-45.666 -9 -78.999 -9c-57.333 0 -107.666 13.333 -150.999 40c-47.333 28.667 -79 69.334 -95 122.001c-9.33301 30 -14 82 -14 156v448h102v-448
c0 -61.333 2 -100.333 6 -117c7.33301 -30.667 26 -56 56 -76c28 -18 58.667 -27 92 -27c73.333 0 120.333 37 141 111c4.66699 16.667 7 53 7 109v448h101v-448c0 -64.667 -5.33301 -114.667 -16 -150z" />
    <glyph glyph-name="V" unicode="V" horiz-adv-x="702" 
d="M366 -15h-35l-321 748h111l228 -532l232 532h111z" />
    <glyph glyph-name="W" unicode="W" horiz-adv-x="960" 
d="M718 -15h-35l-203 517l-207 -517h-35l-211 748h105l137 -487l193 487h36l192 -486l139 486h104z" />
    <glyph glyph-name="X" unicode="X" horiz-adv-x="609" 
d="M483 -15l-178 288l-179 -288h-119l238 385l-222 363h119l163 -266l165 266h118l-223 -363l238 -385h-120z" />
    <glyph glyph-name="Y" unicode="Y" horiz-adv-x="592" 
d="M348 339v-354h-100v354l-244 394h118l175 -282l173 282h118z" />
    <glyph glyph-name="Z" unicode="Z" horiz-adv-x="480" 
d="M162 85h276v-100h-434l302 649h-261v99h417z" />
    <glyph glyph-name="bracketleft" unicode="[" horiz-adv-x="351" 
d="M127 -209v960h194v-99h-96v-764h96v-97h-194z" />
    <glyph glyph-name="backslash" unicode="\" horiz-adv-x="605" 
d="M489 -113l-482 864h109l482 -864h-109z" />
    <glyph glyph-name="bracketright" unicode="]" horiz-adv-x="351" 
d="M30 -209v99h96v764h-96v97h194v-960h-194z" />
    <glyph glyph-name="asciicircum" unicode="^" horiz-adv-x="672" 
d="M539 163l-204 444l-204 -444h-96l263 570h76l263 -570h-98z" />
    <glyph glyph-name="underscore" unicode="_" horiz-adv-x="500" 
d="M-21 -140v80h542v-80h-542z" />
    <glyph glyph-name="grave" unicode="`" horiz-adv-x="378" 
d="M192 615l-173 180h148l128 -180h-103z" />
    <glyph glyph-name="a" unicode="a" horiz-adv-x="683" 
d="M523 -15l0.000976562 60c-76 -49.333 -142 -74 -198 -74c-82.667 0 -151.334 28.5 -206.001 85.5s-82 127.167 -82 210.5c0 82 27.833 151.333 83.5 208s124.5 85 206.5 85c56.667 0 122 -25.333 196 -76v62h97v-561h-97zM473.001 406
c-25.333 26.667 -48.666 43.666 -69.999 50.999c-14 4.66699 -37.667 7 -71 7c-56 0 -102.667 -19.167 -140 -57.5s-56 -85.5 -56 -141.5s18.667 -103.5 56 -142.5s84 -58.5 140 -58.5c57.333 0 104.166 18.833 140.499 56.5s54.5 85.167 54.5 142.5
c0 56.667 -18 104.334 -54 143.001z" />
    <glyph glyph-name="b" unicode="b" horiz-adv-x="682" 
d="M359 -29c-56 0 -121.334 25.667 -196.001 77v-63h-97v766h97v-265c76 49.333 142 74 198 74c82.667 0 151.334 -28.5 206.001 -85.5s82 -126.833 82 -209.5c0 -47.333 -9.66699 -91 -29 -131c-52.667 -108.667 -139.667 -163 -261 -163zM522.999 367
c-37.333 67.333 -93.332 101 -167.999 101c-57.333 0 -104.333 -18.833 -141 -56.5s-55 -85.167 -55 -142.5c0 -58 18.167 -106.167 54.5 -144.5s83.166 -57.5 140.499 -57.5c56 0 102.667 19.167 140 57.5s56 85.833 56 142.5c0 34.667 -9 68 -27 100z" />
    <glyph glyph-name="c" unicode="c" horiz-adv-x="647" 
d="M421 -24c-16.667 -3.33301 -42.666 -5.00098 -77.999 -5.00098c-86 0 -158.667 27 -218 81s-89 123.667 -89 209c0 88.667 30.333 161 91 217c58.667 54.667 132.667 82 222 82c75.333 0 140 -20.333 194 -61c20.667 -15.333 43.667 -43 69 -83l-78 -49
c-56.667 65.333 -119.334 98 -188.001 98c-60 0 -109.667 -18 -149 -54c-41.333 -37.333 -62 -85.666 -62 -144.999c0 -60 20.167 -108.667 60.5 -146s90.5 -56 150.5 -56c66.667 0 129 32.667 187 98l79 -50c-56 -76.667 -119.667 -122 -191 -136z" />
    <glyph glyph-name="d" unicode="d" horiz-adv-x="685" 
d="M524 -15l0.000976562 60c-76 -49.333 -142 -74 -198 -74c-82.667 0 -151.334 28.5 -206.001 85.5s-82 127.167 -82 210.5c0 82 27.833 151.333 83.5 208s124.5 85 206.5 85c56.667 0 122 -25.333 196 -76v267h97v-766h-97zM474.001 406
c-25.333 26.667 -48.666 43.666 -69.999 50.999c-14 4.66699 -37.667 7 -71 7c-56 0 -102.667 -19.167 -140 -57.5s-56 -85.5 -56 -141.5s18.667 -103.5 56 -142.5s84 -58.5 140 -58.5c57.333 0 104.166 18.833 140.499 56.5s54.5 85.167 54.5 142.5
c0 56.667 -18 104.334 -54 143.001z" />
    <glyph glyph-name="e" unicode="e" horiz-adv-x="650" 
d="M134 245c28.667 -120.667 90.998 -180.998 186.998 -180.998c50.667 0 93.334 14.667 128.001 44c19.333 16 42.333 45.333 69 88l82 -43c-33.333 -60 -69.666 -104.333 -108.999 -133c-45.333 -32.667 -100 -49 -164 -49c-85.333 0 -155.166 27.5 -209.499 82.5
s-81.5 125.167 -81.5 210.5c0 71.333 21.667 134.666 65 189.999c55.333 70.667 129.333 106 222 106c95.333 0 171.666 -36.333 228.999 -109c36.667 -46.667 57 -115.334 61 -206.001h-479zM323.998 464.002c-70 0 -130.333 -43.333 -181 -130h367
c-24.667 42 -49.667 73 -75 93c-31.333 24.667 -68.333 37 -111 37z" />
    <glyph glyph-name="f" unicode="f" horiz-adv-x="314" 
d="M249 653l-53.001 3.00098c-2.66699 -6.66699 -4 -24.334 -4 -53.001v-57h111v-88h-111v-473h-99v473h-69v88h69v68c0 36.667 2.66699 63 8 79c16 48 54 72 114 72c20.667 0 52.334 -5.66699 95.001 -17v-101c-42 16 -68.667 24 -80 24c2.66699 -10.667 9 -16.667 19 -18z
" />
    <glyph glyph-name="g" unicode="g" horiz-adv-x="673" 
d="M599 -55c-18.667 -56 -53.666 -98.668 -104.999 -128.001c-46.667 -26.667 -101.334 -40 -164.001 -40c-95.333 0 -169.333 25 -222 75c-20 19.333 -45 59.666 -75 120.999h106c24 -37.333 50.333 -64 79 -80s65 -24 109 -24c60.667 0 106.667 16.667 138 50
c27.333 28.667 47.333 74.334 60 137.001c-81.333 -47.333 -149.333 -71 -204 -71c-82.667 0 -151.167 26.833 -205.5 80.5s-81.5 121.834 -81.5 204.501c0 81.333 27.833 150 83.5 206s124.167 84 205.5 84c54.667 0 120 -25.333 196 -76v62h99v-438
c0 -70.667 -6.33301 -125 -19 -163zM464.001 414.999c-7.33301 6.66699 -19.332 14.667 -35.999 24c-30 16.667 -62 25 -96 25c-57.333 0 -104.833 -18.667 -142.5 -56s-56.5 -84.666 -56.5 -141.999s18.167 -102.833 54.5 -136.5s83.166 -50.5 140.499 -50.5
c58.667 0 105.667 17.167 141 51.5s53 80.833 53 139.5c0 61.333 -19.333 109.666 -58 144.999z" />
    <glyph glyph-name="h" unicode="h" horiz-adv-x="610" 
d="M456 -15l-0.000976562 268c0 70 -4.66699 117.667 -14 143c-17.333 47.333 -54.666 71 -111.999 71c-38 0 -72 -12.5 -102 -37.5s-49.667 -56.167 -59 -93.5c-6 -24 -9 -71 -9 -141v-210h-99v766h99v-266c72 50 133.333 75 184 75c41.333 0 78.833 -10.5 112.5 -31.5
s58.5 -50.167 74.5 -87.5s24 -93.333 24 -168v-288h-99z" />
    <glyph glyph-name="i" unicode="i" horiz-adv-x="200" 
d="M100 622c-20 0 -36.834 6.83398 -50.501 20.501s-20.5 30.5 -20.5 50.5s6.83301 37 20.5 51s30.5 21 50.5 21c20.667 0 37.834 -6.83301 51.501 -20.5s20.5 -30.834 20.5 -51.501c0 -20 -7 -36.833 -21 -50.5s-31 -20.5 -51 -20.5zM50.999 -14.999v561h99v-561h-99z" />
    <glyph glyph-name="j" unicode="j" horiz-adv-x="203" 
d="M102 622c-20 0 -37.001 6.83203 -51.001 20.499s-21 30.5 -21 50.5c0 20.667 6.83301 37.834 20.5 51.501s30.834 20.5 51.501 20.5c20 0 36.833 -7 50.5 -21s20.5 -31 20.5 -51s-6.83301 -36.833 -20.5 -50.5s-30.5 -20.5 -50.5 -20.5zM109.999 -204.001
c-13.333 -12.667 -34.333 -19 -63 -19c-22 0 -53 7 -93 21v98c34.667 -16.667 56 -25 64 -25c10.667 0 19.667 9 27 27c5.33301 14.667 8 28.667 8 42v606h99v-626c0 -56 -14 -97.333 -42 -124z" />
    <glyph glyph-name="k" unicode="k" horiz-adv-x="502" 
d="M405 -15l-245 220v-220h-99v766h99v-401l225 196h146l-309 -268l325 -293h-142z" />
    <glyph glyph-name="l" unicode="l" horiz-adv-x="200" 
d="M51 -15v766h98v-766h-98z" />
    <glyph glyph-name="m" unicode="m" horiz-adv-x="938" 
d="M159 546l-0.000976562 -53c66.667 44.667 122.334 67 167.001 67c38 0 71.333 -9.33301 100 -28c23.333 -15.333 47.333 -40.333 72 -75c61.333 68.667 125 103 191 103c84.667 0 142.667 -38.333 174 -115c14.667 -36 22 -87.667 22 -155v-305h-100v305
c0 52.667 -2.66699 87.334 -8 104.001c-15.333 46.667 -49 70 -101 70c-30.667 0 -58.5 -9.16699 -83.5 -27.5s-43.167 -41.833 -54.5 -70.5c-12 -30.667 -18 -83.334 -18 -158.001v-223h-97v287c0 61.333 -4 103.333 -12 126c-15.333 44 -48 66 -98 66
c-64 0 -109.333 -32.667 -136 -98c-12 -29.333 -18 -76.333 -18 -141v-240h-98v561h98z" />
    <glyph glyph-name="n" unicode="n" horiz-adv-x="610" 
d="M457 -15v268c0 69.333 -5 117 -15 143c-18 47.333 -55.333 71 -112 71c-38 0 -72 -12.5 -102 -37.5s-49.667 -56.167 -59 -93.5c-6 -24 -9 -71 -9 -141v-210h-99v561h99v-61c72 50 133.333 75 184 75c41.333 0 78.833 -10.5 112.5 -31.5s58.5 -50.167 74.5 -87.5
s24 -93.333 24 -168v-288h-98z" />
    <glyph glyph-name="o" unicode="o" horiz-adv-x="655" 
d="M328 -29c-84.667 0 -154.501 27.667 -209.501 83s-82.5 125.333 -82.5 210s27.5 155.167 82.5 211.5s124.833 84.5 209.5 84.5s154.334 -28.167 209.001 -84.5s82 -126.833 82 -211.5c0 -84 -27.5 -153.833 -82.5 -209.5s-124.5 -83.5 -208.5 -83.5zM327.999 463
c-55.333 0 -101.168 -19.333 -137.501 -58s-54.5 -86 -54.5 -142c0 -56.667 18 -103.667 54 -141s82 -56 138 -56s102 18.833 138 56.5s54 84.5 54 140.5c0 55.333 -18.167 102.5 -54.5 141.5s-82.166 58.5 -137.499 58.5z" />
    <glyph glyph-name="p" unicode="p" horiz-adv-x="682" 
d="M563 57c-37.333 -39.333 -71.667 -64.334 -103 -75.001c-20.667 -7.33301 -54.667 -11 -102 -11c-56 0 -122 24.667 -198 74v-254h-98v755h98v-62c74 50.667 139.333 76 196 76c90 0 164.333 -35.333 223 -106c44 -53.333 66 -115.666 66 -186.999
c0 -82.667 -27.333 -152.667 -82 -210zM519.999 364.999c-36.667 66 -92.999 99 -168.999 99c-57.333 0 -104.333 -19 -141 -57s-55 -86 -55 -144s18.5 -105.667 55.5 -143s84.167 -56 141.5 -56c55.333 0 101.666 19.5 138.999 58.5s56 86.5 56 142.5
c0 34.667 -9 68 -27 100z" />
    <glyph glyph-name="q" unicode="q" horiz-adv-x="682" 
d="M523 -209l-0.000976562 254c-76 -49.333 -142.333 -74 -199 -74c-82.667 0 -151.167 28.5 -205.5 85.5s-81.5 127.167 -81.5 210.5c0 82 27.667 151.333 83 208s124 85 206 85c56.667 0 122.334 -25 197.001 -75v61h97v-755h-97zM471.999 406
c-25.333 26.667 -48.332 43.666 -68.999 50.999c-13.333 4.66699 -37 7 -71 7c-56 0 -102.667 -19.167 -140 -57.5s-56 -85.5 -56 -141.5s18.667 -103.5 56 -142.5s83.666 -58.5 138.999 -58.5c57.333 0 104.333 18.833 141 56.5s55 85.167 55 142.5
c0 56.667 -18.333 104.334 -55 143.001z" />
    <glyph glyph-name="r" unicode="r" horiz-adv-x="301" 
d="M135 546l0.000976562 -39.001c55.333 35.333 96.333 53 123 53c17.333 0 44.666 -9.33301 81.999 -28l-52 -82c-16 6.66699 -28.333 11.334 -37 14.001c-58 0 -94.333 -43 -109 -129c-4.66699 -27.333 -7 -79 -7 -155v-195h-100v561h100z" />
    <glyph glyph-name="s" unicode="s" horiz-adv-x="388" 
d="M300 405c-44 40.667 -80 60.999 -108 60.999c-16.667 0 -31.667 -5.5 -45 -16.5s-20 -24.833 -20 -41.5c0 -28.667 31 -59.334 93 -92.001c44.667 -23.333 77 -45.666 97 -66.999c28 -30 42 -65.333 42 -106c0 -50.667 -16.667 -92 -50 -124s-75.333 -48 -126 -48
c-64 0 -122.667 30.333 -176 91l63 72c43.333 -45.333 80 -68 110 -68c22 0 41.5 7 58.5 21s25.5 31.667 25.5 53c0 29.333 -25 57.333 -75 84c-24.667 13.333 -42.667 23.333 -54 30c-22 13.333 -39 25.333 -51 36c-32.667 30 -49 68 -49 114
c0 46.667 15.167 84.334 45.5 113.001s68.833 43 115.5 43c47.333 0 103.333 -29 168 -87z" />
    <glyph glyph-name="t" unicode="t" horiz-adv-x="339" 
d="M220 458v-473h-99v473h-94v88h94v198h99v-198h108v-88h-108z" />
    <glyph glyph-name="u" unicode="u" horiz-adv-x="608" 
d="M520 99c-39.333 -85.333 -112.668 -128.001 -220.001 -128.001s-181 43.333 -221 130c-18 39.333 -27 97.333 -27 174v271h99v-263c0 -60.667 3 -101 9 -121c18.667 -62.667 65.334 -94 140.001 -94c68 0 112.333 26 133 78c9.33301 23.333 14 69 14 137v263h100v-275
c0 -75.333 -9 -132.666 -27 -171.999z" />
    <glyph glyph-name="v" unicode="v" horiz-adv-x="554" 
d="M292 -15h-31l-259 561h106l168 -365l167 365h106z" />
    <glyph glyph-name="w" unicode="w" horiz-adv-x="831" 
d="M606 -15h-33l-159 359l-161 -359h-32l-239 561h103l153 -363l160 363h32l161 -364l154 364h105z" />
    <glyph glyph-name="x" unicode="x" horiz-adv-x="480" 
d="M393 -15l-155 213l-152 -213h-119l212 294l-193 267h119l133 -185l133 185h119l-192 -267l215 -294h-120z" />
    <glyph glyph-name="y" unicode="y" horiz-adv-x="536" 
d="M217 -209h-105l109 249l-225 506h105l174 -386l166 386h106z" />
    <glyph glyph-name="z" unicode="z" horiz-adv-x="425" 
d="M149 76h279v-91h-451l301 471h-260v90h432z" />
    <glyph glyph-name="braceleft" unicode="{" horiz-adv-x="351" 
d="M292 -235c-75.333 0 -124 23.666 -146 70.999c-14.667 32 -22.334 93.333 -23.001 184c0 58 -3.33301 97 -10 117c-10 31.333 -40.333 50 -91 56v111c46 5.33301 74.667 19 86 41c10 18.667 15 64 15 136c0.666992 76 5 128 13 156c14 46.667 44.333 76.667 91 90
c14 4 35.667 6 65 6h42v-106h-30c-31.333 0 -51.333 -6.66699 -60 -20c-6 -9.33301 -9 -31.333 -9 -66c0 -78.667 -1 -127.667 -3 -147c-5.33301 -52.667 -30.666 -101 -75.999 -145c52.667 -50.667 79 -124 79 -220c0 -83.333 7 -135.666 21 -156.999h28
c2.66699 0 9.66699 -0.333008 21 -1h29v-106h-42z" />
    <glyph glyph-name="bar" unicode="|" horiz-adv-x="672" 
d="M286 -209v960h100v-960h-100z" />
    <glyph glyph-name="braceright" unicode="}" horiz-adv-x="351" 
d="M274 185c-28.667 -17.333 -43.332 -49.6699 -43.999 -97.0029c0 -27.333 -1 -80.666 -3 -159.999c-2 -56.667 -16.333 -98 -43 -124s-68.334 -39 -125.001 -39h-42v106h30c31.333 0 51.333 6.33301 60 19c6 8.66699 9 31 9 67c0 77.333 1.33301 127.333 4 150
c6 52 31 99.333 75 142c-38.667 38 -62.334 75 -71.001 111c-5.33301 22.667 -8 59 -8 109c0 70.667 -1.33301 111.334 -4 122.001c-6 24 -20.333 36 -43 36h-52v106h42c101.333 0 157 -50.333 167 -151c0.666992 -8 1.33398 -42.667 2.00098 -104
c0 -31.333 0.333008 -51.333 1 -60c1.33301 -23.333 4.33301 -42.666 9 -57.999c8.66699 -28.667 28.667 -46.667 60 -54c6 -1.33301 16.333 -2.33301 31 -3v-110c-30 -1.33301 -48.333 -4 -55 -8z" />
    <glyph glyph-name="asciitilde" unicode="~" horiz-adv-x="606" 
d="M475 276c-16.667 -5.33301 -32.333 -8.00098 -47 -8.00098c-30.667 0 -67.667 9.33301 -111 28c-77.333 33.333 -122 50 -134 50c-22 0 -69.667 -21 -143 -63v113c64.667 36 111 54 139 54c24 0 52.333 -6.66699 85 -20l81 -36c38.667 -16.667 66 -25 82 -25
c19.333 0 43.666 8.66699 72.999 26c4.66699 2.66699 26.667 16.334 66 41.001v-115c-23.333 -12.667 -53.666 -27.667 -90.999 -45z" />
    <glyph glyph-name="copyright" unicode="&#xa9;" horiz-adv-x="747" 
d="M719 171c-25.333 -44 -48.335 -75.668 -69.002 -95.001c-12.667 -12 -38.334 -29 -77.001 -51c-61.333 -35.333 -127.666 -53 -198.999 -53c-113.333 0 -208.166 38 -284.499 114s-114.5 170.667 -114.5 284c0 112.667 38.333 207 115 283s171.334 114 284.001 114
s207.167 -38 283.5 -114s114.5 -170.333 114.5 -283c0 -71.333 -17.667 -137.666 -53 -198.999zM646.998 526.999c-16.667 29.333 -32.832 51.8311 -48.499 67.498s-38.167 31.834 -67.5 48.501c-48 28 -100.333 42 -157 42c-89.333 0 -164.333 -30.167 -225 -90.5
s-91 -135.166 -91 -224.499s30.333 -164.333 91 -225s135.667 -91 225 -91s164.166 30.333 224.499 91s90.5 135.667 90.5 225c0 56.667 -14 109 -42 157zM505 174.997c-20.667 -19.333 -39.834 -31.834 -57.501 -37.501s-41.5 -8.5 -71.5 -8.5
c-70 0 -124.333 22.667 -163 68c-36.667 42.667 -55 99.667 -55 171c0 72 18 130.333 54 175c38.667 48.667 93.334 73 164.001 73c116.667 0 183.667 -60 201 -180h-95c-8.66699 30.667 -19.667 52.334 -33 65.001c-16 14.667 -39 22 -69 22c-81.333 0 -122 -52 -122 -156
c0 -102 38.667 -153 116 -153c56 0 91.667 40 107 120h96c-11.333 -72.667 -35.333 -125.667 -72 -159z" />
    <glyph glyph-name="registered" unicode="&#xae;" horiz-adv-x="747" 
d="M719 172c-25.333 -44.667 -48.3311 -76.335 -68.998 -95.002c-14.667 -13.333 -40.334 -30.666 -77.001 -51.999c-61.333 -35.333 -127.666 -53 -198.999 -53c-112.667 0 -207.334 38 -284.001 114s-115 170.333 -115 283c0 113.333 38.167 208.333 114.5 285
s171.166 115 284.499 115c112.667 0 207.167 -38.167 283.5 -114.5s114.5 -170.833 114.5 -283.5c0 -71.333 -17.667 -137.666 -53 -198.999zM646.002 527.999c-17.333 30 -33.501 52.832 -48.501 68.499s-36.833 31.834 -65.5 48.501c-47.333 28 -99.666 42 -156.999 42
c-90 0 -165.333 -30.333 -226 -91s-91 -136 -91 -226c0 -89.333 30.5 -164.333 91.5 -225s136.167 -91 225.5 -91s164 30.5 224 91.5s90 136.167 90 225.5c0 54.667 -14.333 107 -43 157zM484.001 177.998l-9.99902 36c-4.66699 16.667 -7.33398 35.667 -8.00098 57
c0 8 -1.66699 21.667 -5 41c-18.667 6.66699 -40.667 10 -66 10h-96v-144h-100v431h199c41.333 0 71 -3 89 -9c26 -8.66699 46.333 -25.167 61 -49.5s22 -50.833 22 -79.5c0 -32 -12.667 -64 -38 -96c22 -32.667 33 -66.667 33 -102v-30c0 -16 1.66699 -28 5 -36
c1.33301 -3.33301 13 -13 35 -29h-121zM426.002 514.998c-10 0.666992 -19.667 1 -29 1h-98v-101h94c21.333 0 37 1.66699 47 5c20 6.66699 30 22 30 46c0 30.667 -14.667 47 -44 49z" />
    <glyph glyph-name="maqaf" unicode="&#x5be;" horiz-adv-x="308" 
d="M17 225v90h298v-90h-298z" />
    <glyph glyph-name="sofpasuq" unicode="&#x5c3;" horiz-adv-x="203" 
d="M151 409c-21.333 0 -39.167 7.16699 -53.5 21.5s-21.5 32.166 -21.5 53.499s7.16699 39.333 21.5 54s32.166 22 53.499 22c22 0 40 -7.16699 54 -21.5s21 -32.5 21 -54.5c0 -21.333 -7.16699 -39.166 -21.5 -53.499s-32.166 -21.5 -53.499 -21.5zM150.999 -29
c-21.333 0 -39.166 7.33301 -53.499 22s-21.5 32.667 -21.5 54s7.16699 39.166 21.5 53.499s32.166 21.5 53.499 21.5s39.166 -7.16699 53.499 -21.5s21.5 -32.166 21.5 -53.499s-7.16699 -39.333 -21.5 -54s-32.166 -22 -53.499 -22z" />
    <glyph glyph-name="alef" unicode="&#x5d0;" horiz-adv-x="754" 
d="M589 -15l-261 350l-159 -350h-137l204 440l-212 292h141l259 -338l163 338h126l-210 -437l228 -295h-142z" />
    <glyph glyph-name="bet" unicode="&#x5d1;" horiz-adv-x="748" 
d="M44 -15l0.000976562 116h453v313c0 142.667 -59.667 214 -179 214c-40.667 0 -83.334 -9 -128.001 -27c-28.667 -11.333 -75 -42 -139 -92v148c26 16 47.667 28.333 65 37c56 28.667 121.667 43 197 43c211.333 0 317 -109 317 -327v-309h79v-116h-665z" />
    <glyph glyph-name="gimel" unicode="&#x5d2;" horiz-adv-x="532" 
d="M370 -15l-37.001 118.001c-62 -67.333 -117 -108 -165 -122c-2.66699 -1.33301 -21.667 -5.33301 -57 -12c-14 -1.33301 -41.333 -3 -82 -5l28 136l10 -2c5.33301 0 13.666 -0.833008 24.999 -2.5s20 -2.5 26 -2.5c77.333 1.33301 140.333 40.666 189 117.999v303
c0 26 -6.66699 48.333 -20 67c-15.333 20 -35.666 30 -60.999 30c-6.66699 1.33301 -14 2 -22 2c-44 0 -95 -24.333 -153 -73v97c19.333 24.667 47.333 47 84 67s70 30 100 30c38.667 0 73.334 -8 104.001 -24c34 -17.333 58.667 -42.333 74 -75c18 -38 27 -91.667 27 -161
v-270l53 -219h-123z" />
    <glyph glyph-name="dalet" unicode="&#x5d3;" horiz-adv-x="682" 
d="M529 601v-616h-127v616h-363v116h604v-116h-114z" />
    <glyph glyph-name="he" unicode="&#x5d4;" horiz-adv-x="708" 
d="M531 -15l-0.000976562 429c0 144.667 -64.667 217 -194 217c-60 0 -122.667 -18 -188 -54c-24.667 -13.333 -59.667 -37 -105 -71v129c92 71.333 191.667 107 299 107c104.667 0 184.334 -29 239.001 -87s82 -139.667 82 -245v-425h-133zM47.999 -15v344h133v-344h-133z
" />
    <glyph glyph-name="vav" unicode="&#x5d5;" horiz-adv-x="229" 
d="M48 -15v732h133v-732h-133z" />
    <glyph glyph-name="zayin" unicode="&#x5d6;" horiz-adv-x="398" 
d="M259 599c-13.333 -24.667 -20 -52.666 -20 -83.999l-2 -530h-119l-2 488c0 20 7 36.667 21 50c18 17.333 58.667 42.666 122 75.999zM39 601.001v116h321v-116h-321z" />
    <glyph glyph-name="het" unicode="&#x5d7;" horiz-adv-x="727" 
d="M551 -15l0.000976562 429.001c0 144.667 -70.333 217 -211 217c-52.667 0 -107.334 -9 -164.001 -27v-619h-132v681c108 52 210.667 77.333 308 76c104.667 -1.33301 186 -30.833 244 -88.5s87 -138.834 87 -243.501v-425h-132z" />
    <glyph glyph-name="tet" unicode="&#x5d8;" horiz-adv-x="767" 
d="M710 239c-42 -177.333 -150.666 -267.668 -325.999 -271.001c-109.333 -2 -196 35 -260 111c-53.333 63.333 -80 140.333 -80 231v410h132v-414c0 -63.333 18.333 -116.333 55 -159c38.667 -46 89 -68.667 151 -68c84 0.666992 143.333 33.334 178 98.001
c26 48.667 39 118.667 39 210c0 54 -7.33301 102 -22 144c-21.333 60 -53.666 90.667 -96.999 92c-46.667 1.33301 -96.334 -20 -149.001 -64l-23 -30v137c29.333 40 68.333 63.333 117 70c19.333 2.66699 42.666 3.33398 69.999 2.00098c82 -4 143.333 -43.667 184 -119
c32.667 -60.667 49 -135.667 49 -225c0 -52.667 -6 -104.334 -18 -155.001z" />
    <glyph glyph-name="yod" unicode="&#x5d9;" horiz-adv-x="229" 
d="M86 309l-38 -26v434h133v-355z" />
    <glyph glyph-name="kaffinal" unicode="&#x5da;" horiz-adv-x="688" 
d="M512 -225v639c0 136.667 -62.667 207.667 -188 213c-81.333 3.33301 -165.666 -30 -252.999 -100h-27v139c109.333 52 207.333 75.333 294 70c99.333 -6 175.166 -37 227.499 -93s78.5 -133.667 78.5 -233v-635h-132z" />
    <glyph glyph-name="kaf" unicode="&#x5db;" horiz-adv-x="682" 
d="M560 91c-62.667 -81.333 -147.001 -122 -253.001 -122c-120.667 0 -208.334 35 -263.001 105v131l19 -17c80.667 -72 161.334 -107.333 242.001 -106c68.667 1.33301 122.334 30.666 161.001 87.999c33.333 50.667 50 112 50 184c0 70 -16.333 130.333 -49 181
c-37.333 58 -89 88.667 -155 92c-86.667 4 -170 -31.667 -250 -107l-18 -17v119c38 36.667 81.333 65.334 130 86.001c52 22 102.667 31.333 152 28c99.333 -6.66699 178 -48 236 -124c54 -70 81 -156.333 81 -259s-27.667 -190 -83 -262z" />
    <glyph glyph-name="lamed" unicode="&#x5dc;" horiz-adv-x="611" 
d="M299 -22l-102 60l236 563h-389v347h134l-2 -231h397v-87z" />
    <glyph glyph-name="memfinal" unicode="&#x5dd;" horiz-adv-x="737" 
d="M44 -15v680.998c108 52 210.667 77.333 308 76c106 -1.33301 189.333 -30.666 250 -87.999s91 -138.666 91 -243.999v-425h-649zM561 413.998c0 68.667 -19.666 122 -58.999 160s-93.333 57 -162 57c-52.667 0 -107.334 -9 -164.001 -27v-503h385v313z" />
    <glyph glyph-name="mem" unicode="&#x5de;" horiz-adv-x="745" 
d="M376 -15v116h192v313c0 80 -12.333 133.667 -37 161c-28 31.333 -64.333 47 -109 47c-38.667 0 -77.667 -11 -117 -33c-62 -34.667 -107 -65 -135 -91v-513h-131v732h129v-91c110.667 70.667 200 106 268 106c90 0 158 -32.333 204 -97
c40.667 -56.667 61 -131.667 61 -225v-425h-325z" />
    <glyph glyph-name="nunfinal" unicode="&#x5df;" horiz-adv-x="229" 
d="M48 -225v942h133v-942h-133z" />
    <glyph glyph-name="nun" unicode="&#x5e0;" horiz-adv-x="445" 
d="M44 -15l-0.000976562 116h225v413c0 71.333 -20 107 -60 107c-32.667 0 -74 -18.667 -124 -56l-20 -15v99c38.667 52.667 87.334 79 146.001 79c127.333 0 191 -84.667 191 -254v-489h-358z" />
    <glyph glyph-name="samekh" unicode="&#x5e1;" horiz-adv-x="764" 
d="M690 177c-52 -136.667 -153.667 -206.334 -305 -209.001c-110 -2 -197 35 -261 111c-53.333 63.333 -80 140.333 -80 231v410h446c60 0 110 -22 150 -66c34.667 -38 58.667 -88.333 72 -151c8.66699 -40.667 13 -82 13 -124c0 -73.333 -11.667 -140.666 -35 -201.999z
M579 497c-18.667 71.333 -52.667 106.999 -102 106.999h-301v-298c0 -63.333 18.333 -116.333 55 -159c38.667 -46 89 -68.667 151 -68c76 0.666992 132 32.334 168 95.001c28.667 50 43 116 43 198c0 47.333 -4.66699 89 -14 125z" />
    <glyph glyph-name="ayin" unicode="&#x5e2;" horiz-adv-x="680" 
d="M493 13c-36 -18.667 -73 -28 -111 -28h-320v116h152l-180 616h134l176 -616c110.667 2 166 80.333 166 235v381h127v-417c0 -141.333 -48 -237 -144 -287z" />
    <glyph glyph-name="pefinal" unicode="&#x5e3;" horiz-adv-x="739" 
d="M563 -225v590c0 74 -16 134.667 -48 182c-36.667 55.333 -90.334 83 -161.001 83c-32 0 -63.667 -6.66699 -95 -20c-35.333 -14.667 -59.666 -34.667 -72.999 -60c-16.667 -31.333 -25 -60.333 -25 -87c0 -22 8.66699 -43.333 26 -64c15.333 -18 34 -32 56 -42v-124
c-136.667 44 -205 124 -205 240c0 82.667 33.333 149 100 199c60.667 45.333 133.667 68 219 68c108 0 192.333 -37 253 -111c57.333 -68.667 86 -158 86 -268v-586h-133z" />
    <glyph glyph-name="pe" unicode="&#x5e4;" horiz-adv-x="735" 
d="M340 -31c-52.667 0 -108.335 11.665 -167.002 34.998c-46.667 18.667 -82.334 39.334 -107.001 62.001v136l31 -30c62 -60 141.333 -90 238 -90c78 0 137 28.667 177 86c36 50.667 53 116.334 51 197.001c-2 74 -18.333 134.333 -49 181c-36.667 56 -90 84 -160 84
c-32 0 -63.667 -6.66699 -95 -20c-35.333 -14.667 -59.666 -34.667 -72.999 -60c-16.667 -31.333 -25 -60.333 -25 -87c0 -20 13.667 -43.667 41 -71c22.667 -22.667 45.334 -40 68.001 -52v-114c-61.333 15.333 -113.666 44 -156.999 86
c-49.333 47.333 -74 100.333 -74 159c0 84 32.667 151 98 201c60 45.333 133.333 68 220 68c109.333 0 193.666 -36.667 252.999 -110c54.667 -66.667 83.334 -156 86.001 -268c2.66699 -114.667 -27 -208 -89 -280c-64.667 -75.333 -153.667 -113 -267 -113z" />
    <glyph glyph-name="tsadifinal" unicode="&#x5e5;" horiz-adv-x="679" 
d="M550 -225l-522 942h137l175 -324l162 324h138l-236 -432l281 -510h-135z" />
    <glyph glyph-name="tsadi" unicode="&#x5e6;" horiz-adv-x="652" 
d="M60 -15v116l374 -1l-419 617h150l191 -292l129 292h136l-177 -407l234 -325h-618z" />
    <glyph glyph-name="qof" unicode="&#x5e7;" horiz-adv-x="685" 
d="M599 34c-26 -22 -49.667 -36 -71 -42c-13.333 -4 -35.333 -6 -66 -6c-38.667 0 -60.667 0.666992 -66 2c-13.333 3.33301 -33.333 13 -60 29v126c24.667 -18.667 41.667 -29.667 51 -33c12 -4.66699 32 -7 60 -7c48.667 0 77 27 85 81l1 417h-489v116h612v-561
c0 -49.333 -19 -90 -57 -122zM48 -225l-2 698h135v-698h-133z" />
    <glyph glyph-name="resh" unicode="&#x5e8;" horiz-adv-x="708" 
d="M531 -15l-0.000976562 429c0 144.667 -64.667 217 -194 217c-60 0 -122.667 -18 -188 -54c-24.667 -13.333 -59.667 -37 -105 -71v129c92 71.333 191.667 107 299 107c104.667 0 184.334 -29 239.001 -87s82 -139.667 82 -245v-425h-133z" />
    <glyph glyph-name="shin" unicode="&#x5e9;" horiz-adv-x="827" 
d="M708 107c-67.333 -92 -166.333 -138.001 -297 -138.001c-115.333 0 -206 37 -272 111c-63.333 70.667 -95 164.334 -95 281.001v356h132v-352c0 -18.667 2.66699 -48 8 -88c108.667 30 163 100.333 163 211v229h132v-225c0 -84.667 -24.667 -151.667 -74 -201
c-42.667 -43.333 -107.334 -76.333 -194.001 -99c60.667 -73.333 127.334 -110 200.001 -110c79.333 0 140.333 28 183 84c38 50.667 57 117 57 199v352h132v-356c0 -101.333 -25 -186 -75 -254z" />
    <glyph glyph-name="tav" unicode="&#x5ea;" horiz-adv-x="875" 
d="M699 -15l-0.000976562 428.998c0 144.667 -71 217 -213 217c-53.333 0 -108.666 -9 -165.999 -27v-424c0 -65.333 -16 -116 -48 -152c-33.333 -38 -82.333 -57 -147 -57c2 0 -26.667 9 -86 27v112l18 -6c34 -11.333 56.333 -17 67 -17c28.667 0 47.667 16.667 57 50
c4.66699 16.667 7 45 7 85v444c108 52 211 77.333 309 76c105.333 -1.33301 187.333 -30.666 246 -87.999s88 -138.666 88 -243.999v-425h-132z" />
    <glyph glyph-name="geresh" unicode="&#x5f3;" horiz-adv-x="167" 
d="M138 495h-79l-12 256h104z" />
    <glyph glyph-name="gershayim" unicode="&#x5f4;" horiz-adv-x="371" 
d="M289 495h-79l-12 256h103zM99 495h-79l-12 256h103z" />
    <glyph glyph-name="newsheqel" unicode="&#x20aa;" horiz-adv-x="827" 
d="M728 107c-67.333 -92 -166.333 -138.001 -297 -138.001c-115.333 0 -206 37 -272 111c-63.333 70.667 -95 164.334 -95 281.001v126h132v-122c0 -67.333 9.66699 -117.333 29 -150c41.333 -88.667 110 -133 206 -133c79.333 0 140.333 28 183 84c38 50.667 57 117 57 199
v352h132v-356c0 -101.333 -25 -186 -75 -254zM350 214.999v198.998c0 144.667 -70 217 -210 217c-52.667 0 -107.334 -9 -164.001 -27v-619h-133v681c108.667 52 211.334 77.333 308.001 76c106 -1.33301 187.833 -30.666 245.5 -87.999s86.5 -138.666 86.5 -243.999v-195
h-133z" />
    <glyph glyph-name=".null" horiz-adv-x="0" 
 />
    <glyph glyph-name="nonmarkingreturn" 
 />
    <glyph glyph-name="glyph100" 
 />
    <glyph glyph-name="glyph101" 
 />
    <glyph glyph-name="glyph100" 
 />
    <glyph glyph-name="glyph101" 
 />
    <glyph glyph-name="ch256" 
 />
    <glyph glyph-name="ch257" 
 />
    <glyph glyph-name="ch258" 
 />
    <glyph glyph-name="ch259" 
 />
    <glyph glyph-name="glyph113" 
 />
    <glyph glyph-name="glyph114" 
 />
    <glyph glyph-name="glyph104" 
 />
    <glyph glyph-name="glyph105" 
 />
    <glyph glyph-name="glyph227" 
 />
    <glyph glyph-name="glyph228" 
 />
  </font>
</defs>
</svg>
